<?xml version="1.0" encoding="UTF-8"?>
<!DOCTYPE svg PUBLIC "-//W3C//DTD SVG 1.1//EN" "http://www.w3.org/Graphics/SVG/1.1/DTD/svg11.dtd">
<!-- Creator: CorelDRAW X8 -->
<svg xmlns="http://www.w3.org/2000/svg" xml:space="preserve" width="85mm" height="104mm" version="1.1" style="shape-rendering:geometricPrecision; text-rendering:geometricPrecision; image-rendering:optimizeQuality; fill-rule:evenodd; clip-rule:evenodd"
viewBox="0 0 85000 104000"
 xmlns:xlink="http://www.w3.org/1999/xlink">
 <defs>
  <style type="text/css">
   <![CDATA[
    .fil4 {fill:#4D4D4D}
    .fil1 {fill:#666666}
    .fil2 {fill:gray}
    .fil0 {fill:#B3B3B3}
    .fil3 {fill:#E6E6E6}
   ]]>
  </style>
 </defs>
 <g id="Capa_x0020_1">
  <metadata id="CorelCorpID_0Corel-Layer"/>
  <g id="_1012868644464">
   <path class="fil0" d="M42924 25789c-8892,-300 -16988,1062 -24285,4083 7947,-19738 16042,-29588 24285,-29551l0 25468z"/>
   <path class="fil1" d="M42924 25789c0,-16979 0,-25468 0,-25468 7930,-143 15811,9636 23641,29336 -7025,-2819 -14905,-4108 -23641,-3868z"/>
   <path class="fil2" d="M38864 55234c-7998,-4063 -15289,-11206 -19188,-14720 -3767,-3395 -4528,-6076 403,-7902 11782,-4363 32488,-5569 44121,-591 5248,1719 6231,4481 3278,7522 -2953,3041 -11470,10664 -20659,15689l-7955 2z"/>
   <path class="fil0" d="M42984 50058l-3 -18474 12100 -4c1333,58 2682,489 2133,2123 -2614,7775 -3946,11635 -3946,11635 -2593,2765 -5965,4334 -10284,4720z"/>
   <path class="fil3" d="M42984 50058l-3 -18474 -12474 6c-1329,-53 -2441,683 -2008,1874 1862,7141 3677,11499 4137,12196 3435,2972 6941,4433 10348,4398z"/>
   <path class="fil4" d="M13616 55296l19450 -107c-6663,-4944 -10209,-7684 -10209,-7684 -4732,3231 -7858,5602 -9687,6614 -5571,3081 -4926,7416 -8075,14139 -2998,6400 -6586,12684 -1373,18744 3980,4627 6348,7355 6348,7355 0,-11328 -850,-23094 -886,-34440 -6,-2274 2639,-4750 4432,-4621z"/>
   <path class="fil4" d="M71869 55067l-19450 -107c6663,-4944 10209,-7684 10209,-7684 4731,3231 7858,5602 9687,6614 5571,3081 4925,7416 8075,14139 2997,6400 6586,12684 1373,18744 -3980,4627 -6348,7355 -6348,7355 0,-11328 850,-23094 885,-34440 7,-2274 -2638,-4750 -4431,-4621z"/>
   <rect class="fil3" x="13428" y="99998" width="58672" height="3492"/>
   <path class="fil3" d="M12058 60185c-114,-1036 770,-1988 1800,-1988l57679 13c1666,0 2181,596 2041,2364l-1397 36442 -59424 0 -699 -36831z"/>
   <path class="fil1" d="M31858 85921c-67,-1345 309,-2007 1075,-2310 -2471,-2720 -3581,-6657 -2176,-11122 1466,-4660 5954,-8127 11241,-7981 5339,147 9089,2978 10787,8088 1127,4497 361,8321 -2270,11095 1017,445 1181,906 1142,2338 -39,1431 -991,1643 -1639,1692l-2901 0c-44,800 -76,1478 -111,2033 -133,2087 -118,1770 -2161,1872 -2094,104 -4193,43 -6291,19 -1780,-21 -1748,-221 -1908,-2028 -108,-1227 -140,-1842 -140,-1842l-2471 -14c-1234,-7 -2016,-561 -2177,-1840z"/>
   <path class="fil3" d="M34075 76062c1966,1093 4035,1478 6367,1316 387,2758 -2059,4457 -4274,3934 -1827,-431 -3383,-2377 -2093,-5250z"/>
   <path class="fil3" d="M49505 75993c-1966,1094 -4035,1479 -6367,1317 -387,2758 2059,4457 4274,3934 1827,-431 3383,-2377 2093,-5251z"/>
   <rect class="fil3" transform="matrix(1.02886 0.291428 -0.27132 0.993674 40273.3 82660.5)" width="1164" height="3122" rx="472" ry="472"/>
   <rect class="fil3" transform="matrix(-1.02886 0.291428 0.27132 0.993674 43700.6 82637.8)" width="1164" height="3122" rx="472" ry="472"/>
  </g>
 </g>
</svg>
