<?xml version="1.0" encoding="UTF-8"?>
<!DOCTYPE svg PUBLIC "-//W3C//DTD SVG 1.1//EN" "http://www.w3.org/Graphics/SVG/1.1/DTD/svg11.dtd">
<!-- Creator: CorelDRAW X8 -->
<svg xmlns="http://www.w3.org/2000/svg" xml:space="preserve" width="120.1mm" height="52mm" version="1.1" style="shape-rendering:geometricPrecision; text-rendering:geometricPrecision; image-rendering:optimizeQuality; fill-rule:evenodd; clip-rule:evenodd"
viewBox="0 0 120100 52000"
 xmlns:xlink="http://www.w3.org/1999/xlink">
 <defs>
  <style type="text/css">
   <![CDATA[
    .str0 {stroke:#333333;stroke-width:76.2}
    .fil2 {fill:black}
    .fil3 {fill:#1A1A1A}
    .fil1 {fill:#333333}
    .fil4 {fill:gray}
    .fil5 {fill:#CCCCCC}
    .fil0 {fill:#E6E6E6}
    .fil6 {fill:white}
   ]]>
  </style>
 </defs>
 <g id="Capa_x0020_1">
  <metadata id="CorelCorpID_0Corel-Layer"/>
  <g id="_977664273152">
   <polygon class="fil0" points="24357,47023 24371,44810 96199,44810 96199,47023 "/>
   <rect class="fil1" x="52256" y="42432" width="15806" height="4591" rx="1926" ry="1979"/>
   <circle class="fil2" cx="103076" cy="4155" r="3097"/>
   <circle class="fil2" cx="117054" cy="15998" r="3097"/>
   <circle class="fil2" cx="116901" cy="36062" r="3097"/>
   <circle class="fil2" cx="103006" cy="47978" r="3097"/>
   <circle class="fil2" cx="17175" cy="47979" r="3097"/>
   <circle class="fil2" cx="3297" cy="36091" r="3097"/>
   <circle class="fil2" cx="3480" cy="16002" r="3097"/>
   <circle class="fil2" cx="17364" cy="4108" r="3097"/>
   <polygon class="fil2" points="18387,45397 16306,45396 16300,42321 19803,38908 30637,38906 30637,40985 21042,40987 18390,43407 "/>
   <polygon class="fil2" points="6014,34973 6013,37017 11240,37017 17347,30840 31178,30840 31180,28998 16026,28997 9928,34973 "/>
   <polygon class="fil2" points="10314,17031 6011,17034 6014,15065 11259,15064 17377,20985 31216,20986 31215,22998 16326,22999 "/>
   <polygon class="fil2" points="16375,9671 16376,6871 18366,6870 18366,8649 20913,11144 30489,11144 30489,13005 19770,13005 "/>
   <polygon class="fil2" points="101831,6674 103871,6676 103877,9750 100443,13163 89819,13165 89819,11086 99227,11084 101828,8664 "/>
   <polygon class="fil2" points="114163,17098 114164,15054 109107,15054 103200,21231 89821,21231 89819,23074 104478,23074 110377,17098 "/>
   <polygon class="fil2" points="110010,35040 114166,35037 114163,37006 109097,37007 103187,31086 89819,31085 89819,29073 104202,29072 "/>
   <polygon class="fil2" points="103802,42400 103802,45201 101830,45201 101829,43422 99306,40927 89819,40927 89819,39066 100439,39066 "/>
   <rect class="fil1 str0" x="37681" y="6687" width="1258" height="673" rx="84" ry="91"/>
   <rect class="fil1 str0" x="32815" y="6725" width="1258" height="673" rx="84" ry="91"/>
   <rect class="fil1 str0" x="42711" y="6725" width="1258" height="673" rx="84" ry="91"/>
   <rect class="fil1 str0" x="52717" y="6697" width="1258" height="673" rx="84" ry="91"/>
   <rect class="fil1 str0" x="62684" y="6697" width="1258" height="673" rx="84" ry="91"/>
   <rect class="fil1 str0" x="48168" y="6697" width="859" height="673" rx="57" ry="91"/>
   <rect class="fil1 str0" x="58197" y="6675" width="859" height="673" rx="57" ry="91"/>
   <rect class="fil1 str0" x="67640" y="6683" width="1258" height="673" rx="84" ry="91"/>
   <rect class="fil1 str0" x="77742" y="6690" width="1258" height="673" rx="84" ry="91"/>
   <rect class="fil1 str0" x="82607" y="6682" width="1258" height="673" rx="84" ry="91"/>
   <rect class="fil1 str0" x="86989" y="6675" width="1258" height="673" rx="84" ry="91"/>
   <rect class="fil1 str0" x="72876" y="6683" width="1258" height="673" rx="84" ry="91"/>
   <rect class="fil1 str0" x="29963" y="41246" width="673" height="1182" rx="82" ry="82"/>
   <rect class="fil1 str0" x="29946" y="36254" width="673" height="1182" rx="82" ry="82"/>
   <rect class="fil1 str0" x="30004" y="31316" width="673" height="1182" rx="82" ry="82"/>
   <rect class="fil1 str0" x="29977" y="26327" width="673" height="1182" rx="82" ry="82"/>
   <rect class="fil1 str0" x="29977" y="16486" width="673" height="1182" rx="82" ry="82"/>
   <rect class="fil1 str0" x="30020" y="9858" width="673" height="1182" rx="82" ry="82"/>
   <rect class="fil1 str0" x="89865" y="41169" width="673" height="1182" rx="82" ry="82"/>
   <rect class="fil1 str0" x="89882" y="36177" width="673" height="1182" rx="82" ry="82"/>
   <rect class="fil1 str0" x="89824" y="31239" width="673" height="1182" rx="82" ry="82"/>
   <rect class="fil1 str0" x="89852" y="26250" width="673" height="1182" rx="82" ry="82"/>
   <rect class="fil1 str0" x="89852" y="16409" width="673" height="1182" rx="82" ry="82"/>
   <rect class="fil1 str0" x="89911" y="9781" width="673" height="1182" rx="82" ry="82"/>
   <rect class="fil3" x="30429" y="7220" width="59617" height="37591" rx="1891" ry="2073"/>
   <rect class="fil4" x="34285" y="11075" width="51706" height="29832" rx="1640" ry="1645"/>
   <path class="fil5" d="M29922 50919c-4823,230 -5561,-2146 -5565,-3894l71857 -2c-81,3476 -2671,3906 -7205,3910l-59087 -14z"/>
   <circle class="fil6" cx="103075" cy="4120" r="988"/>
   <circle class="fil6" cx="117053" cy="15963" r="988"/>
   <circle class="fil6" cx="116901" cy="36027" r="988"/>
   <circle class="fil6" cx="103006" cy="47944" r="988"/>
   <circle class="fil6" cx="17174" cy="48014" r="988"/>
   <circle class="fil6" cx="3297" cy="36125" r="988"/>
   <circle class="fil6" cx="3426" cy="15935" r="988"/>
   <circle class="fil6" cx="17363" cy="4142" r="988"/>
   <path class="fil0" d="M56116 32188c-1964,-7 -3300,-1189 -3301,-3143l-2 -5116c-2,-3143 2288,-5774 5239,-6674 1084,-330 3746,-323 4854,103 2677,1028 4926,3951 4927,6846l1 4676c0,1872 -1562,3353 -3405,3308l-5 3298c-1,599 72,570 -318,933l-591 549c-158,135 -116,116 -331,116l-5774 1c-338,0 -331,36 -535,-176l-400 -409c-82,-83 -167,-164 -246,-251 -127,-138 -113,-147 -113,-375l0 -455 0 -3231zm-97 -9922l2476 704c487,2072 -1272,2892 -2364,2285 -1044,-580 -1219,-2228 -112,-2989zm8454 -8l-2476 704c-487,2072 1272,2892 2364,2285 1044,-580 1219,-2227 112,-2989zm-3065 8173l-2140 0c-739,8 -744,44 -393,-622l1046 -1952c476,-902 370,-941 846,71l839 1660c421,834 421,851 -198,843zm-2087 6654l-1634 0 0 -3359 1634 0 0 3359zm3422 0l-1635 0 0 -3359 1635 0 0 3359z"/>
  </g>
 </g>
</svg>
