<?xml version="1.0" encoding="UTF-8"?>
<!DOCTYPE svg PUBLIC "-//W3C//DTD SVG 1.1//EN" "http://www.w3.org/Graphics/SVG/1.1/DTD/svg11.dtd">
<!-- Creator: CorelDRAW X8 -->
<svg xmlns="http://www.w3.org/2000/svg" xml:space="preserve" width="120mm" height="110mm" version="1.1" style="shape-rendering:geometricPrecision; text-rendering:geometricPrecision; image-rendering:optimizeQuality; fill-rule:evenodd; clip-rule:evenodd"
viewBox="0 0 120000 110000"
 xmlns:xlink="http://www.w3.org/1999/xlink">
 <defs>
  <style type="text/css">
   <![CDATA[
    .str0 {stroke:black;stroke-width:846.6}
    .str6 {stroke:#FF9966;stroke-width:338.6}
    .str5 {stroke:white;stroke-width:338.6}
    .str1 {stroke:black;stroke-width:677.3}
    .str2 {stroke:black;stroke-width:200}
    .str3 {stroke:black;stroke-width:253.9}
    .str4 {stroke:#FF6633;stroke-width:76.2}
    .fil3 {fill:black}
    .fil5 {fill:#00CCFF}
    .fil0 {fill:#1A1A1A}
    .fil7 {fill:#C70000}
    .fil1 {fill:#FC561F}
    .fil6 {fill:#FF6633}
    .fil2 {fill:#FFCC99}
    .fil4 {fill:white}
   ]]>
  </style>
    <mask id="id0">
     <path fill="#818182" d="M-16259 -73345 L157187 -1897 L85738 171550 L-87708 100101 L-16259 -73345 L-15861 -72388 L156230 -1498 L85340 170593 L-86751 99703 L-15861 -72388 L-16259 -73345z"/>
     <path fill="#818182" d="M-16060 -72867 L156708 -1697 L85539 171071 L-87229 99902 L-16060 -72867 L-15662 -71910 L155752 -1299 L85141 170115 L-86273 99504 L-15662 -71910 L-16060 -72867z"/>
     <path fill="#828282" d="M-15861 -72388 L156230 -1498 L85340 170593 L-86751 99703 L-15861 -72388 L-15463 -71432 L155273 -1100 L84942 169636 L-85794 99304 L-15463 -71432 L-15861 -72388z"/>
     <path fill="#828282" d="M-15662 -71910 L155752 -1299 L85141 170115 L-86273 99504 L-15662 -71910 L-15263 -70953 L154795 -901 L84742 169158 L-85316 99105 L-15263 -70953 L-15662 -71910z"/>
     <path fill="#828282" d="M-15463 -71432 L155273 -1100 L84942 169636 L-85794 99304 L-15463 -71432 L-15064 -70475 L154317 -701 L84543 168680 L-84838 98906 L-15064 -70475 L-15463 -71432z"/>
     <path fill="#838383" d="M-15263 -70953 L154795 -901 L84742 169158 L-85316 99105 L-15263 -70953 L-14865 -69997 L153839 -502 L84344 168201 L-84360 98707 L-14865 -69997 L-15263 -70953z"/>
     <path fill="#838383" d="M-15064 -70475 L154317 -701 L84543 168680 L-84838 98906 L-15064 -70475 L-14666 -69518 L153360 -303 L84145 167723 L-83881 98508 L-14666 -69518 L-15064 -70475z"/>
     <path fill="#848485" d="M-14865 -69997 L153839 -502 L84344 168201 L-84360 98707 L-14865 -69997 L-14466 -69040 L152882 -104 L83945 167245 L-83403 98308 L-14466 -69040 L-14865 -69997z"/>
     <path fill="#848485" d="M-14666 -69518 L153360 -303 L84145 167723 L-83881 98508 L-14666 -69518 L-14267 -68562 L152404 96 L83746 166766 L-82925 98109 L-14267 -68562 L-14666 -69518z"/>
     <path fill="#848485" d="M-14466 -69040 L152882 -104 L83945 167245 L-83403 98308 L-14466 -69040 L-14068 -68084 L151925 295 L83547 166288 L-82446 97910 L-14068 -68084 L-14466 -69040z"/>
     <path fill="#858586" d="M-14267 -68562 L152404 96 L83746 166766 L-82925 98109 L-14267 -68562 L-13869 -67605 L151447 494 L83348 165810 L-81968 97711 L-13869 -67605 L-14267 -68562z"/>
     <path fill="#858586" d="M-14068 -68084 L151925 295 L83547 166288 L-82446 97910 L-14068 -68084 L-13670 -67127 L150969 693 L83149 165331 L-81490 97511 L-13670 -67127 L-14068 -68084z"/>
     <path fill="#858586" d="M-13869 -67605 L151447 494 L83348 165810 L-81968 97711 L-13869 -67605 L-13470 -66649 L150490 892 L82949 164853 L-81011 97312 L-13470 -66649 L-13869 -67605z"/>
     <path fill="#868686" d="M-13670 -67127 L150969 693 L83149 165331 L-81490 97511 L-13670 -67127 L-13271 -66170 L150012 1092 L82750 164375 L-80533 97113 L-13271 -66170 L-13670 -67127z"/>
     <path fill="#868686" d="M-13470 -66649 L150490 892 L82949 164853 L-81011 97312 L-13470 -66649 L-13072 -65692 L149534 1291 L82551 163897 L-80055 96914 L-13072 -65692 L-13470 -66649z"/>
     <path fill="#878787" d="M-13271 -66170 L150012 1092 L82750 164375 L-80533 97113 L-13271 -66170 L-12873 -65214 L149055 1490 L82352 163418 L-79576 96715 L-12873 -65214 L-13271 -66170z"/>
     <path fill="#878787" d="M-13072 -65692 L149534 1291 L82551 163897 L-80055 96914 L-13072 -65692 L-12674 -64735 L148577 1689 L82153 162940 L-79098 96515 L-12674 -64735 L-13072 -65692z"/>
     <path fill="#878787" d="M-12873 -65214 L149055 1490 L82352 163418 L-79576 96715 L-12873 -65214 L-12474 -64257 L148099 1889 L81953 162462 L-78620 96316 L-12474 -64257 L-12873 -65214z"/>
     <path fill="#888888" d="M-12674 -64735 L148577 1689 L82153 162940 L-79098 96515 L-12674 -64735 L-12275 -63779 L147621 2088 L81754 161983 L-78142 96117 L-12275 -63779 L-12674 -64735z"/>
     <path fill="#888888" d="M-12474 -64257 L148099 1889 L81953 162462 L-78620 96316 L-12474 -64257 L-12076 -63300 L147142 2287 L81555 161505 L-77663 95918 L-12076 -63300 L-12474 -64257z"/>
     <path fill="#888888" d="M-12275 -63779 L147621 2088 L81754 161983 L-78142 96117 L-12275 -63779 L-11877 -62822 L146664 2486 L81356 161027 L-77185 95719 L-11877 -62822 L-12275 -63779z"/>
     <path fill="#898989" d="M-12076 -63300 L147142 2287 L81555 161505 L-77663 95918 L-12076 -63300 L-11677 -62344 L146186 2685 L81156 160548 L-76707 95519 L-11677 -62344 L-12076 -63300z"/>
     <path fill="#898989" d="M-11877 -62822 L146664 2486 L81356 161027 L-77185 95719 L-11877 -62822 L-11478 -61865 L145707 2885 L80957 160070 L-76228 95320 L-11478 -61865 L-11877 -62822z"/>
     <path fill="#898989" d="M-11677 -62344 L146186 2685 L81156 160548 L-76707 95519 L-11677 -62344 L-11279 -61387 L145229 3084 L80758 159592 L-75750 95121 L-11279 -61387 L-11677 -62344z"/>
     <path fill="#8A8A8A" d="M-11478 -61866 L145707 2885 L80957 160070 L-76228 95320 L-11478 -61866 L-11080 -60909 L144751 3283 L80559 159113 L-75272 94922 L-11080 -60909 L-11478 -61866z"/>
     <path fill="#8A8A8A" d="M-11279 -61387 L145229 3084 L80758 159592 L-75750 95121 L-11279 -61387 L-10881 -60431 L144272 3482 L80360 158635 L-74793 94722 L-10881 -60431 L-11279 -61387z"/>
     <path fill="#8B8B8B" d="M-11080 -60909 L144751 3283 L80559 159113 L-75272 94922 L-11080 -60909 L-10681 -59952 L143794 3681 L80160 158157 L-74315 94523 L-10681 -59952 L-11080 -60909z"/>
     <path fill="#8B8B8B" d="M-10881 -60431 L144272 3482 L80360 158635 L-74793 94722 L-10881 -60431 L-10482 -59474 L143316 3881 L79961 157679 L-73837 94324 L-10482 -59474 L-10881 -60431z"/>
     <path fill="#8B8B8B" d="M-10681 -59952 L143794 3681 L80160 158157 L-74315 94523 L-10681 -59952 L-10283 -58996 L142837 4080 L79762 157200 L-73358 94125 L-10283 -58996 L-10681 -59952z"/>
     <path fill="#8C8C8C" d="M-10482 -59474 L143316 3881 L79961 157679 L-73837 94324 L-10482 -59474 L-10084 -58517 L142359 4279 L79563 156722 L-72880 93926 L-10084 -58517 L-10482 -59474z"/>
     <path fill="#8C8C8C" d="M-10283 -58996 L142837 4080 L79762 157200 L-73358 94125 L-10283 -58996 L-9885 -58039 L141881 4478 L79364 156244 L-72402 93726 L-9885 -58039 L-10283 -58996z"/>
     <path fill="#8C8C8C" d="M-10084 -58517 L142359 4279 L79563 156722 L-72880 93926 L-10084 -58517 L-9685 -57561 L141402 4678 L79164 155765 L-71923 93527 L-9685 -57561 L-10084 -58517z"/>
     <path fill="#8D8D8D" d="M-9885 -58039 L141881 4478 L79364 156244 L-72402 93726 L-9885 -58039 L-9486 -57082 L140924 4877 L78965 155287 L-71445 93328 L-9486 -57082 L-9885 -58039z"/>
     <path fill="#8D8D8D" d="M-9685 -57561 L141403 4678 L79164 155765 L-71924 93527 L-9685 -57561 L-9287 -56604 L140446 5076 L78766 154809 L-70967 93129 L-9287 -56604 L-9685 -57561z"/>
     <path fill="#8E8E8E" d="M-9486 -57082 L140924 4877 L78965 155287 L-71445 93328 L-9486 -57082 L-9088 -56126 L139968 5275 L78567 154330 L-70489 92930 L-9088 -56126 L-9486 -57082z"/>
     <path fill="#8E8E8E" d="M-9287 -56604 L140446 5076 L78766 154809 L-70967 93129 L-9287 -56604 L-8888 -55647 L139489 5474 L78367 153852 L-70010 92730 L-8888 -55647 L-9287 -56604z"/>
     <path fill="#8E8E8E" d="M-9088 -56126 L139968 5275 L78567 154330 L-70489 92930 L-9088 -56126 L-8689 -55169 L139011 5674 L78168 153374 L-69532 92531 L-8689 -55169 L-9088 -56126z"/>
     <path fill="#8F8F8F" d="M-8888 -55647 L139489 5474 L78367 153852 L-70010 92730 L-8888 -55647 L-8490 -54691 L138533 5873 L77969 152895 L-69054 92332 L-8490 -54691 L-8888 -55647z"/>
     <path fill="#8F8F8F" d="M-8689 -55169 L139011 5674 L78168 153374 L-69532 92531 L-8689 -55169 L-8291 -54213 L138054 6072 L77770 152417 L-68575 92133 L-8291 -54213 L-8689 -55169z"/>
     <path fill="#8F8F8F" d="M-8490 -54691 L138533 5873 L77969 152895 L-69054 92332 L-8490 -54691 L-8092 -53734 L137576 6271 L77571 151939 L-68097 91933 L-8092 -53734 L-8490 -54691z"/>
     <path fill="#909090" d="M-8291 -54213 L138054 6072 L77770 152417 L-68575 92133 L-8291 -54213 L-7892 -53256 L137098 6470 L77371 151460 L-67619 91734 L-7892 -53256 L-8291 -54213z"/>
     <path fill="#909090" d="M-8092 -53734 L137576 6271 L77571 151939 L-68097 91933 L-8092 -53734 L-7693 -52778 L136619 6670 L77172 150982 L-67140 91535 L-7693 -52778 L-8092 -53734z"/>
     <path fill="#909090" d="M-7892 -53256 L137098 6470 L77371 151461 L-67619 91734 L-7892 -53256 L-7494 -52299 L136141 6869 L76973 150504 L-66662 91336 L-7494 -52299 L-7892 -53256z"/>
     <path fill="#919191" d="M-7693 -52778 L136619 6670 L77172 150982 L-67140 91535 L-7693 -52778 L-7295 -51821 L135663 7068 L76774 150026 L-66184 91137 L-7295 -51821 L-7693 -52778z"/>
     <path fill="#919191" d="M-7494 -52299 L136141 6869 L76973 150504 L-66662 91336 L-7494 -52299 L-7096 -51343 L135184 7267 L76575 149547 L-65705 90937 L-7096 -51343 L-7494 -52299z"/>
     <path fill="#929292" d="M-7295 -51821 L135663 7068 L76774 150026 L-66184 91137 L-7295 -51821 L-6896 -50864 L134706 7467 L76375 149069 L-65227 90738 L-6896 -50864 L-7295 -51821z"/>
     <path fill="#929292" d="M-7096 -51343 L135184 7267 L76575 149547 L-65705 90937 L-7096 -51343 L-6697 -50386 L134228 7666 L76176 148591 L-64749 90539 L-6697 -50386 L-7096 -51343z"/>
     <path fill="#929292" d="M-6896 -50864 L134706 7467 L76375 149069 L-65227 90738 L-6896 -50864 L-6498 -49908 L133750 7865 L75977 148112 L-64271 90340 L-6498 -49908 L-6896 -50864z"/>
     <path fill="#939393" d="M-6697 -50386 L134228 7666 L76176 148591 L-64749 90539 L-6697 -50386 L-6299 -49429 L133271 8064 L75778 147634 L-63792 90141 L-6299 -49429 L-6697 -50386z"/>
     <path fill="#939393" d="M-6498 -49908 L133750 7865 L75977 148112 L-64271 90340 L-6498 -49908 L-6099 -48951 L132793 8263 L75578 147156 L-63314 89941 L-6099 -48951 L-6498 -49908z"/>
     <path fill="#939393" d="M-6299 -49429 L133271 8064 L75778 147634 L-63792 90141 L-6299 -49429 L-5900 -48473 L132315 8463 L75379 146677 L-62836 89742 L-5900 -48473 L-6299 -49429z"/>
     <path fill="#939394" d="M-6099 -48951 L132793 8263 L75578 147156 L-63314 89941 L-6099 -48951 L-5701 -47995 L131836 8662 L75180 146199 L-62357 89543 L-5701 -47995 L-6099 -48951z"/>
     <path fill="#939394" d="M-5900 -48473 L132315 8463 L75379 146677 L-62836 89742 L-5900 -48473 L-5502 -47516 L131358 8861 L74981 145721 L-61879 89344 L-5502 -47516 L-5900 -48473z"/>
     <path fill="#949595" d="M-5701 -47995 L131836 8662 L75180 146199 L-62357 89543 L-5701 -47995 L-5303 -47038 L130880 9060 L74782 145242 L-61401 89144 L-5303 -47038 L-5701 -47995z"/>
     <path fill="#949595" d="M-5502 -47516 L131358 8861 L74981 145721 L-61879 89344 L-5502 -47516 L-5103 -46560 L130401 9259 L74582 144764 L-60922 88945 L-5103 -46560 L-5502 -47516z"/>
     <path fill="#949595" d="M-5303 -47038 L130880 9060 L74782 145242 L-61401 89144 L-5303 -47038 L-4904 -46081 L129923 9459 L74383 144286 L-60444 88746 L-4904 -46081 L-5303 -47038z"/>
     <path fill="#959596" d="M-5103 -46560 L130401 9259 L74582 144764 L-60922 88945 L-5103 -46560 L-4705 -45603 L129445 9658 L74184 143808 L-59966 88547 L-4705 -45603 L-5103 -46560z"/>
     <path fill="#959596" d="M-4904 -46081 L129923 9459 L74383 144286 L-60444 88746 L-4904 -46081 L-4506 -45125 L128966 9857 L73985 143329 L-59487 88348 L-4506 -45125 L-4904 -46081z"/>
     <path fill="#959596" d="M-4705 -45603 L129445 9658 L74184 143808 L-59966 88547 L-4705 -45603 L-4307 -44646 L128488 10056 L73786 142851 L-59009 88148 L-4307 -44646 L-4705 -45603z"/>
     <path fill="#969697" d="M-4506 -45125 L128966 9857 L73985 143329 L-59487 88348 L-4506 -45125 L-4107 -44168 L128010 10256 L73586 142373 L-58531 87949 L-4107 -44168 L-4506 -45125z"/>
     <path fill="#969697" d="M-4307 -44646 L128488 10056 L73786 142851 L-59009 88148 L-4307 -44646 L-3908 -43690 L127532 10455 L73387 141894 L-58053 87750 L-3908 -43690 L-4307 -44646z"/>
     <path fill="#969697" d="M-4107 -44168 L128010 10256 L73586 142373 L-58531 87949 L-4107 -44168 L-3709 -43211 L127053 10654 L73188 141416 L-57574 87551 L-3709 -43211 L-4107 -44168z"/>
     <path fill="#979797" d="M-3908 -43690 L127532 10455 L73387 141894 L-58053 87750 L-3908 -43690 L-3510 -42733 L126575 10853 L72989 140938 L-57096 87352 L-3510 -42733 L-3908 -43690z"/>
     <path fill="#979797" d="M-3709 -43211 L127053 10654 L73188 141416 L-57574 87551 L-3709 -43211 L-3310 -42255 L126097 11052 L72789 140459 L-56618 87152 L-3310 -42255 L-3709 -43211z"/>
     <path fill="#989898" d="M-3510 -42733 L126575 10853 L72989 140938 L-57096 87352 L-3510 -42733 L-3111 -41776 L125618 11252 L72590 139981 L-56139 86953 L-3111 -41776 L-3510 -42733z"/>
     <path fill="#989898" d="M-3310 -42255 L126097 11052 L72789 140459 L-56618 87152 L-3310 -42255 L-2912 -41298 L125140 11451 L72391 139503 L-55661 86754 L-2912 -41298 L-3310 -42255z"/>
     <path fill="#989898" d="M-3111 -41777 L125618 11252 L72590 139981 L-56139 86953 L-3111 -41777 L-2713 -40820 L124662 11650 L72192 139024 L-55183 86555 L-2713 -40820 L-3111 -41777z"/>
     <path fill="#999999" d="M-2912 -41298 L125140 11451 L72391 139503 L-55661 86754 L-2912 -41298 L-2514 -40342 L124183 11849 L71993 138546 L-54704 86355 L-2514 -40342 L-2912 -41298z"/>
     <path fill="#999999" d="M-2713 -40820 L124662 11650 L72192 139024 L-55183 86555 L-2713 -40820 L-2314 -39863 L123705 12048 L71793 138068 L-54226 86156 L-2314 -39863 L-2713 -40820z"/>
     <path fill="#999999" d="M-2514 -40342 L124183 11849 L71993 138546 L-54704 86355 L-2514 -40342 L-2115 -39385 L123227 12248 L71594 137590 L-53748 85957 L-2115 -39385 L-2514 -40342z"/>
     <path fill="#9A9A9A" d="M-2314 -39863 L123705 12048 L71793 138068 L-54226 86156 L-2314 -39863 L-1916 -38907 L122748 12447 L71395 137111 L-53269 85758 L-1916 -38907 L-2314 -39863z"/>
     <path fill="#9A9A9A" d="M-2115 -39385 L123227 12248 L71594 137590 L-53748 85957 L-2115 -39385 L-1717 -38428 L122270 12646 L71196 136633 L-52791 85559 L-1717 -38428 L-2115 -39385z"/>
     <path fill="#9B9B9B" d="M-1916 -38907 L122748 12447 L71395 137111 L-53269 85758 L-1916 -38907 L-1518 -37950 L121792 12845 L70997 136155 L-52313 85359 L-1518 -37950 L-1916 -38907z"/>
     <path fill="#9B9B9B" d="M-1717 -38428 L122270 12646 L71196 136633 L-52791 85559 L-1717 -38428 L-1318 -37472 L121313 13045 L70797 135676 L-51834 85160 L-1318 -37472 L-1717 -38428z"/>
     <path fill="#9B9B9B" d="M-1518 -37950 L121792 12845 L70997 136155 L-52313 85359 L-1518 -37950 L-1119 -36993 L120835 13244 L70598 135198 L-51356 84961 L-1119 -36993 L-1518 -37950z"/>
     <path fill="#9C9C9C" d="M-1318 -37472 L121314 13045 L70797 135676 L-51835 85160 L-1318 -37472 L-920 -36515 L120357 13443 L70399 134720 L-50878 84762 L-920 -36515 L-1318 -37472z"/>
     <path fill="#9C9C9C" d="M-1119 -36993 L120835 13244 L70598 135198 L-51356 84961 L-1119 -36993 L-721 -36037 L119879 13642 L70200 134241 L-50400 84562 L-721 -36037 L-1119 -36993z"/>
     <path fill="#9C9C9C" d="M-920 -36515 L120357 13443 L70399 134720 L-50878 84762 L-920 -36515 L-521 -35558 L119400 13841 L70000 133763 L-49921 84363 L-521 -35558 L-920 -36515z"/>
     <path fill="#9D9D9D" d="M-721 -36037 L119879 13642 L70200 134241 L-50400 84562 L-721 -36037 L-322 -35080 L118922 14041 L69801 133285 L-49443 84164 L-322 -35080 L-721 -36037z"/>
     <path fill="#9D9D9D" d="M-521 -35558 L119400 13841 L70000 133763 L-49921 84363 L-521 -35558 L-123 -34602 L118444 14240 L69602 132806 L-48965 83965 L-123 -34602 L-521 -35558z"/>
     <path fill="#9D9D9D" d="M-322 -35080 L118922 14041 L69801 133285 L-49443 84164 L-322 -35080 L76 -34124 L117965 14439 L69403 132328 L-48486 83766 L76 -34124 L-322 -35080z"/>
     <path fill="#9E9E9E" d="M-123 -34602 L118444 14240 L69602 132806 L-48965 83965 L-123 -34602 L275 -33645 L117487 14638 L69204 131850 L-48008 83566 L275 -33645 L-123 -34602z"/>
     <path fill="#9E9E9E" d="M76 -34124 L117965 14439 L69403 132328 L-48486 83766 L76 -34124 L475 -33167 L117009 14838 L69004 131371 L-47530 83367 L475 -33167 L76 -34124z"/>
     <path fill="#9E9F9F" d="M275 -33645 L117487 14638 L69204 131850 L-48008 83566 L275 -33645 L674 -32689 L116530 15037 L68805 130893 L-47051 83168 L674 -32689 L275 -33645z"/>
     <path fill="#9E9F9F" d="M475 -33167 L117009 14837 L69004 131372 L-47530 83367 L475 -33167 L873 -32210 L116052 15236 L68606 130415 L-46573 82969 L873 -32210 L475 -33167z"/>
     <path fill="#9E9F9F" d="M674 -32689 L116530 15037 L68805 130893 L-47051 83168 L674 -32689 L1072 -31732 L115574 15435 L68407 129937 L-46095 82770 L1072 -31732 L674 -32689z"/>
     <path fill="#9F9FA0" d="M873 -32210 L116052 15236 L68606 130415 L-46573 82969 L873 -32210 L1272 -31254 L115095 15634 L68208 129458 L-45616 82570 L1272 -31254 L873 -32210z"/>
     <path fill="#9F9FA0" d="M1072 -31732 L115574 15435 L68407 129937 L-46095 82770 L1072 -31732 L1471 -30775 L114617 15834 L68008 128980 L-45138 82371 L1471 -30775 L1072 -31732z"/>
     <path fill="#9F9FA0" d="M1272 -31254 L115095 15634 L68208 129458 L-45616 82570 L1272 -31254 L1670 -30297 L114139 16033 L67809 128502 L-44660 82172 L1670 -30297 L1272 -31254z"/>
     <path fill="#A0A0A1" d="M1471 -30775 L114617 15834 L68008 128980 L-45138 82371 L1471 -30775 L1869 -29819 L113661 16232 L67610 128023 L-44182 81973 L1869 -29819 L1471 -30775z"/>
     <path fill="#A0A0A1" d="M1670 -30297 L114139 16033 L67809 128502 L-44660 82172 L1670 -30297 L2068 -29340 L113182 16431 L67411 127545 L-43703 81773 L2068 -29340 L1670 -30297z"/>
     <path fill="#A1A1A1" d="M1869 -29819 L113661 16232 L67610 128023 L-44182 81973 L1869 -29819 L2268 -28862 L112704 16630 L67211 127067 L-43225 81574 L2268 -28862 L1869 -29819z"/>
     <path fill="#A1A1A1" d="M2068 -29340 L113182 16431 L67411 127545 L-43703 81773 L2068 -29340 L2467 -28384 L112226 16830 L67012 126588 L-42747 81375 L2467 -28384 L2068 -29340z"/>
     <path fill="#A1A1A1" d="M2268 -28862 L112704 16630 L67211 127067 L-43225 81574 L2268 -28862 L2666 -27906 L111747 17029 L66813 126110 L-42268 81176 L2666 -27906 L2268 -28862z"/>
     <path fill="#A2A2A2" d="M2467 -28384 L112226 16830 L67012 126588 L-42747 81375 L2467 -28384 L2865 -27427 L111269 17228 L66614 125632 L-41790 80977 L2865 -27427 L2467 -28384z"/>
     <path fill="#A2A2A2" d="M2666 -27906 L111747 17029 L66813 126110 L-42268 81176 L2666 -27906 L3064 -26949 L110791 17427 L66415 125153 L-41312 80777 L3064 -26949 L2666 -27906z"/>
     <path fill="#A2A2A2" d="M2865 -27427 L111269 17228 L66614 125632 L-41790 80977 L2865 -27427 L3264 -26471 L110312 17627 L66215 124675 L-40833 80578 L3264 -26471 L2865 -27427z"/>
     <path fill="#A3A3A3" d="M3064 -26949 L110791 17427 L66415 125153 L-41312 80777 L3064 -26949 L3463 -25992 L109834 17826 L66016 124197 L-40355 80379 L3463 -25992 L3064 -26949z"/>
     <path fill="#A3A3A3" d="M3264 -26471 L110312 17626 L66215 124675 L-40833 80578 L3264 -26471 L3662 -25514 L109356 18025 L65817 123719 L-39877 80180 L3662 -25514 L3264 -26471z"/>
     <path fill="#A3A3A3" d="M3463 -25992 L109834 17826 L66016 124197 L-40355 80379 L3463 -25992 L3861 -25036 L108877 18224 L65618 123240 L-39398 79981 L3861 -25036 L3463 -25992z"/>
     <path fill="#A4A4A4" d="M3662 -25514 L109356 18025 L65817 123719 L-39877 80180 L3662 -25514 L4061 -24557 L108399 18423 L65419 122762 L-38920 79781 L4061 -24557 L3662 -25514z"/>
     <path fill="#A4A4A4" d="M3861 -25036 L108877 18224 L65618 123240 L-39398 79981 L3861 -25036 L4260 -24079 L107921 18623 L65219 122284 L-38442 79582 L4260 -24079 L3861 -25036z"/>
     <path fill="#A5A5A5" d="M4061 -24557 L108399 18423 L65419 122762 L-38920 79781 L4061 -24557 L4459 -23601 L107443 18822 L65020 121805 L-37964 79383 L4459 -23601 L4061 -24557z"/>
     <path fill="#A5A5A5" d="M4260 -24079 L107921 18623 L65219 122284 L-38442 79582 L4260 -24079 L4658 -23122 L106964 19021 L64821 121327 L-37485 79184 L4658 -23122 L4260 -24079z"/>
     <path fill="#A5A5A5" d="M4459 -23601 L107443 18822 L65020 121805 L-37964 79383 L4459 -23601 L4857 -22644 L106486 19220 L64622 120849 L-37007 78984 L4857 -22644 L4459 -23601z"/>
     <path fill="#A6A6A6" d="M4658 -23122 L106964 19021 L64821 121327 L-37485 79184 L4658 -23122 L5057 -22166 L106008 19419 L64422 120370 L-36529 78785 L5057 -22166 L4658 -23122z"/>
     <path fill="#A6A6A6" d="M4857 -22644 L106486 19220 L64622 120849 L-37007 78984 L4857 -22644 L5256 -21687 L105529 19619 L64223 119892 L-36050 78586 L5256 -21687 L4857 -22644z"/>
     <path fill="#A6A6A6" d="M5057 -22166 L106008 19419 L64422 120370 L-36529 78785 L5057 -22166 L5455 -21209 L105051 19818 L64024 119414 L-35572 78387 L5455 -21209 L5057 -22166z"/>
     <path fill="#A7A7A7" d="M5256 -21688 L105529 19619 L64223 119892 L-36050 78586 L5256 -21688 L5654 -20731 L104573 20017 L63825 118935 L-35094 78188 L5654 -20731 L5256 -21688z"/>
     <path fill="#A7A7A7" d="M5455 -21209 L105051 19818 L64024 119414 L-35572 78387 L5455 -21209 L5853 -20253 L104094 20216 L63626 118457 L-34615 77988 L5853 -20253 L5455 -21209z"/>
     <path fill="#A7A8A8" d="M5654 -20731 L104573 20017 L63825 118935 L-35094 78188 L5654 -20731 L6053 -19774 L103616 20416 L63426 117979 L-34137 77789 L6053 -19774 L5654 -20731z"/>
     <path fill="#A7A8A8" d="M5853 -20253 L104094 20216 L63626 118457 L-34615 77988 L5853 -20253 L6252 -19296 L103138 20615 L63227 117501 L-33659 77590 L6252 -19296 L5853 -20253z"/>
     <path fill="#A7A8A8" d="M6053 -19774 L103616 20415 L63426 117979 L-34137 77789 L6053 -19774 L6451 -18818 L102659 20814 L63028 117022 L-33180 77391 L6451 -18818 L6053 -19774z"/>
     <path fill="#A8A8A9" d="M6252 -19296 L103138 20615 L63227 117501 L-33659 77590 L6252 -19296 L6650 -18339 L102181 21013 L62829 116544 L-32702 77192 L6650 -18339 L6252 -19296z"/>
     <path fill="#A8A8A9" d="M6451 -18818 L102659 20814 L63028 117022 L-33180 77391 L6451 -18818 L6850 -17861 L101703 21212 L62630 116066 L-32224 76992 L6850 -17861 L6451 -18818z"/>
     <path fill="#A8A8A9" d="M6650 -18339 L102181 21013 L62829 116544 L-32702 77192 L6650 -18339 L7049 -17383 L101224 21412 L62430 115587 L-31745 76793 L7049 -17383 L6650 -18339z"/>
     <path fill="#A9A9AA" d="M6850 -17861 L101703 21212 L62630 116066 L-32224 76992 L6850 -17861 L7248 -16904 L100746 21611 L62231 115109 L-31267 76594 L7248 -16904 L6850 -17861z"/>
     <path fill="#A9A9AA" d="M7049 -17383 L101225 21412 L62430 115587 L-31746 76793 L7049 -17383 L7447 -16426 L100268 21810 L62032 114631 L-30789 76395 L7447 -16426 L7049 -17383z"/>
     <path fill="#A9A9AA" d="M7248 -16904 L100746 21611 L62231 115109 L-31267 76594 L7248 -16904 L7646 -15948 L99790 22009 L61833 114152 L-30311 76195 L7646 -15948 L7248 -16904z"/>
     <path fill="#AAAAAA" d="M7447 -16426 L100268 21810 L62032 114631 L-30789 76395 L7447 -16426 L7846 -15469 L99311 22208 L61633 113674 L-29832 75996 L7846 -15469 L7447 -16426z"/>
     <path fill="#AAAAAA" d="M7646 -15948 L99790 22009 L61833 114152 L-30311 76195 L7646 -15948 L8045 -14991 L98833 22408 L61434 113196 L-29354 75797 L8045 -14991 L7646 -15948z"/>
     <path fill="#ABABAB" d="M7846 -15469 L99311 22208 L61633 113674 L-29832 75996 L7846 -15469 L8244 -14513 L98355 22607 L61235 112717 L-28876 75598 L8244 -14513 L7846 -15469z"/>
     <path fill="#ABABAB" d="M8045 -14991 L98833 22408 L61434 113196 L-29354 75797 L8045 -14991 L8443 -14035 L97876 22806 L61036 112239 L-28397 75399 L8443 -14035 L8045 -14991z"/>
     <path fill="#ABABAB" d="M8244 -14513 L98355 22607 L61235 112717 L-28876 75598 L8244 -14513 L8642 -13556 L97398 23005 L60837 111761 L-27919 75199 L8642 -13556 L8244 -14513z"/>
     <path fill="#ACACAC" d="M8443 -14035 L97876 22806 L61036 112239 L-28397 75399 L8443 -14035 L8842 -13078 L96920 23205 L60637 111282 L-27441 75000 L8842 -13078 L8443 -14035z"/>
     <path fill="#ACACAC" d="M8642 -13556 L97398 23005 L60837 111761 L-27919 75199 L8642 -13556 L9041 -12600 L96441 23404 L60438 110804 L-26962 74801 L9041 -12600 L8642 -13556z"/>
     <path fill="#ACACAC" d="M8842 -13078 L96920 23204 L60637 111283 L-27441 75000 L8842 -13078 L9240 -12121 L95963 23603 L60239 110326 L-26484 74602 L9240 -12121 L8842 -13078z"/>
     <path fill="#ADADAD" d="M9041 -12600 L96441 23404 L60438 110804 L-26962 74801 L9041 -12600 L9439 -11643 L95485 23802 L60040 109848 L-26006 74403 L9439 -11643 L9041 -12600z"/>
     <path fill="#ADADAD" d="M9240 -12121 L95963 23603 L60239 110326 L-26484 74602 L9240 -12121 L9639 -11165 L95006 24001 L59841 109369 L-25527 74203 L9639 -11165 L9240 -12121z"/>
     <path fill="#AEAEAE" d="M9439 -11643 L95485 23802 L60040 109848 L-26006 74403 L9439 -11643 L9838 -10686 L94528 24201 L59641 108891 L-25049 74004 L9838 -10686 L9439 -11643z"/>
     <path fill="#AEAEAE" d="M9639 -11165 L95006 24001 L59841 109369 L-25527 74203 L9639 -11165 L10037 -10208 L94050 24400 L59442 108413 L-24571 73805 L10037 -10208 L9639 -11165z"/>
     <path fill="#AEAEAE" d="M9838 -10686 L94528 24201 L59641 108891 L-25049 74004 L9838 -10686 L10236 -9730 L93572 24599 L59243 107934 L-24093 73606 L10236 -9730 L9838 -10686z"/>
     <path fill="#AFAFAF" d="M10037 -10208 L94050 24400 L59442 108413 L-24571 73805 L10037 -10208 L10435 -9251 L93093 24798 L59044 107456 L-23614 73406 L10435 -9251 L10037 -10208z"/>
     <path fill="#AFAFAF" d="M10236 -9730 L93572 24599 L59243 107934 L-24093 73606 L10236 -9730 L10635 -8773 L92615 24997 L58844 106978 L-23136 73207 L10635 -8773 L10236 -9730z"/>
     <path fill="#AFAFAF" d="M10435 -9251 L93093 24798 L59044 107456 L-23614 73406 L10435 -9251 L10834 -8295 L92137 25197 L58645 106499 L-22658 73008 L10834 -8295 L10435 -9251z"/>
     <path fill="#AFAFB0" d="M10635 -8773 L92615 24997 L58845 106978 L-23136 73207 L10635 -8773 L11033 -7817 L91658 25396 L58446 106021 L-22179 72809 L11033 -7817 L10635 -8773z"/>
     <path fill="#AFAFB0" d="M10834 -8295 L92137 25197 L58645 106499 L-22658 73008 L10834 -8295 L11232 -7338 L91180 25595 L58247 105543 L-21701 72610 L11232 -7338 L10834 -8295z"/>
     <path fill="#B0B0B1" d="M11033 -7817 L91658 25396 L58446 106021 L-22179 72809 L11033 -7817 L11431 -6860 L90702 25794 L58048 105064 L-21223 72410 L11431 -6860 L11033 -7817z"/>
     <path fill="#B0B0B1" d="M11232 -7338 L91180 25595 L58247 105543 L-21701 72610 L11232 -7338 L11631 -6382 L90223 25994 L57848 104586 L-20744 72211 L11631 -6382 L11232 -7338z"/>
     <path fill="#B0B0B1" d="M11431 -6860 L90702 25794 L58048 105064 L-21223 72410 L11431 -6860 L11830 -5903 L89745 26193 L57649 104108 L-20266 72012 L11830 -5903 L11431 -6860z"/>
     <path fill="#B1B1B2" d="M11631 -6382 L90223 25993 L57848 104586 L-20744 72211 L11631 -6382 L12029 -5425 L89267 26392 L57450 103630 L-19788 71813 L12029 -5425 L11631 -6382z"/>
     <path fill="#B1B1B2" d="M11830 -5903 L89745 26193 L57649 104108 L-20266 72012 L11830 -5903 L12228 -4947 L88788 26591 L57251 103151 L-19309 71614 L12228 -4947 L11830 -5903z"/>
     <path fill="#B1B1B2" d="M12029 -5425 L89267 26392 L57450 103630 L-19788 71813 L12029 -5425 L12428 -4468 L88310 26790 L57052 102673 L-18831 71414 L12428 -4468 L12029 -5425z"/>
     <path fill="#B2B2B2" d="M12228 -4947 L88788 26591 L57251 103151 L-19309 71614 L12228 -4947 L12627 -3990 L87832 26990 L56852 102195 L-18353 71215 L12627 -3990 L12228 -4947z"/>
     <path fill="#B2B2B2" d="M12428 -4468 L88310 26790 L57052 102673 L-18831 71414 L12428 -4468 L12826 -3512 L87354 27189 L56653 101716 L-17875 71016 L12826 -3512 L12428 -4468z"/>
     <path fill="#B2B2B2" d="M12627 -3990 L87832 26990 L56852 102195 L-18353 71215 L12627 -3990 L13025 -3033 L86875 27388 L56454 101238 L-17396 70817 L13025 -3033 L12627 -3990z"/>
     <path fill="#B3B3B3" d="M12826 -3512 L87354 27189 L56653 101716 L-17875 71016 L12826 -3512 L13224 -2555 L86397 27587 L56255 100760 L-16918 70617 L13224 -2555 L12826 -3512z"/>
     <path fill="#B3B3B3" d="M13025 -3033 L86875 27388 L56454 101238 L-17396 70817 L13025 -3033 L13424 -2077 L85919 27786 L56055 100281 L-16440 70418 L13424 -2077 L13025 -3033z"/>
     <path fill="#B4B4B4" d="M13224 -2555 L86397 27587 L56255 100760 L-16918 70617 L13224 -2555 L13623 -1599 L85440 27986 L55856 99803 L-15961 70219 L13623 -1599 L13224 -2555z"/>
     <path fill="#B4B4B4" d="M13424 -2077 L85919 27786 L56056 100281 L-16440 70418 L13424 -2077 L13822 -1120 L84962 28185 L55657 99325 L-15483 70020 L13822 -1120 L13424 -2077z"/>
     <path fill="#B4B4B4" d="M13623 -1599 L85440 27986 L55856 99803 L-15961 70219 L13623 -1599 L14021 -642 L84484 28384 L55458 98846 L-15005 69821 L14021 -642 L13623 -1599z"/>
     <path fill="#B5B5B5" d="M13822 -1120 L84962 28185 L55657 99325 L-15483 70020 L13822 -1120 L14220 -164 L84005 28583 L55259 98368 L-14526 69621 L14220 -164 L13822 -1120z"/>
     <path fill="#B5B5B5" d="M14021 -642 L84484 28384 L55458 98846 L-15005 69821 L14021 -642 L14420 315 L83527 28783 L55059 97890 L-14048 69422 L14420 315 L14021 -642z"/>
     <path fill="#B5B5B5" d="M14220 -164 L84005 28583 L55259 98368 L-14526 69621 L14220 -164 L14619 793 L83049 28982 L54860 97412 L-13570 69223 L14619 793 L14220 -164z"/>
     <path fill="#B5B6B6" d="M14420 315 L83527 28782 L55059 97890 L-14048 69422 L14420 315 L14818 1271 L82570 29181 L54661 96933 L-13091 69024 L14818 1271 L14420 315z"/>
     <path fill="#B5B6B6" d="M14619 793 L83049 28982 L54860 97412 L-13570 69223 L14619 793 L15017 1750 L82092 29380 L54462 96455 L-12613 68825 L15017 1750 L14619 793z"/>
     <path fill="#B6B6B7" d="M14818 1271 L82570 29181 L54661 96933 L-13091 69024 L14818 1271 L15217 2228 L81614 29579 L54263 95977 L-12135 68625 L15217 2228 L14818 1271z"/>
     <path fill="#B6B6B7" d="M15017 1750 L82092 29380 L54462 96455 L-12613 68825 L15017 1750 L15416 2706 L81135 29779 L54063 95498 L-11656 68426 L15416 2706 L15017 1750z"/>
     <path fill="#B6B6B7" d="M15217 2228 L81614 29579 L54263 95977 L-12135 68625 L15217 2228 L15615 3185 L80657 29978 L53864 95020 L-11178 68227 L15615 3185 L15217 2228z"/>
     <path fill="#B7B7B8" d="M15416 2706 L81136 29779 L54063 95498 L-11657 68426 L15416 2706 L15814 3663 L80179 30177 L53665 94542 L-10700 68028 L15814 3663 L15416 2706z"/>
     <path fill="#B7B7B8" d="M15615 3185 L80657 29978 L53864 95020 L-11178 68227 L15615 3185 L16013 4141 L79701 30376 L53466 94063 L-10222 67828 L16013 4141 L15615 3185z"/>
     <path fill="#B7B7B8" d="M15814 3663 L80179 30177 L53665 94542 L-10700 68028 L15814 3663 L16213 4620 L79222 30575 L53266 93585 L-9743 67629 L16213 4620 L15814 3663z"/>
     <path fill="#B8B8B8" d="M16013 4141 L79701 30376 L53466 94063 L-10222 67828 L16013 4141 L16412 5098 L78744 30775 L53067 93107 L-9265 67430 L16412 5098 L16013 4141z"/>
     <path fill="#B8B8B8" d="M16213 4620 L79222 30575 L53267 93585 L-9743 67629 L16213 4620 L16611 5576 L78266 30974 L52868 92628 L-8787 67231 L16611 5576 L16213 4620z"/>
     <path fill="#B8B8B8" d="M16412 5098 L78744 30775 L53067 93107 L-9265 67430 L16412 5098 L16810 6055 L77787 31173 L52669 92150 L-8308 67032 L16810 6055 L16412 5098z"/>
     <path fill="#B9B9B9" d="M16611 5576 L78266 30974 L52868 92628 L-8787 67231 L16611 5576 L17010 6533 L77309 31372 L52470 91672 L-7830 66832 L17010 6533 L16611 5576z"/>
     <path fill="#B9B9B9" d="M16810 6055 L77787 31173 L52669 92150 L-8308 67032 L16810 6055 L17209 7011 L76831 31572 L52270 91193 L-7352 66633 L17209 7011 L16810 6055z"/>
     <path fill="#BABABA" d="M17010 6533 L77309 31372 L52470 91672 L-7830 66832 L17010 6533 L17408 7489 L76352 31771 L52071 90715 L-6873 66434 L17408 7489 L17010 6533z"/>
     <path fill="#BABABA" d="M17209 7011 L76831 31571 L52270 91194 L-7352 66633 L17209 7011 L17607 7968 L75874 31970 L51872 90237 L-6395 66235 L17607 7968 L17209 7011z"/>
     <path fill="#BABABA" d="M17408 7489 L76352 31771 L52071 90715 L-6873 66434 L17408 7489 L17806 8446 L75396 32169 L51673 89759 L-5917 66036 L17806 8446 L17408 7489z"/>
     <path fill="#BBBBBB" d="M17607 7968 L75874 31970 L51872 90237 L-6395 66235 L17607 7968 L18006 8924 L74917 32368 L51474 89280 L-5438 65836 L18006 8924 L17607 7968z"/>
     <path fill="#BBBBBB" d="M17806 8446 L75396 32169 L51673 89759 L-5917 66036 L17806 8446 L18205 9403 L74439 32568 L51274 88802 L-4960 65637 L18205 9403 L17806 8446z"/>
     <path fill="#BBBBBB" d="M18006 8924 L74917 32368 L51474 89280 L-5438 65836 L18006 8924 L18404 9881 L73961 32767 L51075 88324 L-4482 65438 L18404 9881 L18006 8924z"/>
     <path fill="#BBBCBC" d="M18205 9403 L74439 32568 L51274 88802 L-4960 65637 L18205 9403 L18603 10359 L73483 32966 L50876 87845 L-4004 65239 L18603 10359 L18205 9403z"/>
     <path fill="#BBBCBC" d="M18404 9881 L73961 32767 L51075 88324 L-4482 65438 L18404 9881 L18802 10838 L73004 33165 L50677 87367 L-3525 65039 L18802 10838 L18404 9881z"/>
     <path fill="#BCBCBD" d="M18603 10359 L73483 32966 L50876 87845 L-4004 65239 L18603 10359 L19002 11316 L72526 33364 L50477 86889 L-3047 64840 L19002 11316 L18603 10359z"/>
     <path fill="#BCBCBD" d="M18802 10838 L73004 33165 L50677 87367 L-3525 65039 L18802 10838 L19201 11794 L72048 33564 L50278 86410 L-2569 64641 L19201 11794 L18802 10838z"/>
     <path fill="#BCBCBD" d="M19002 11316 L72526 33364 L50477 86889 L-3047 64840 L19002 11316 L19400 12273 L71569 33763 L50079 85932 L-2090 64442 L19400 12273 L19002 11316z"/>
     <path fill="#BDBDBE" d="M19201 11794 L72048 33564 L50278 86410 L-2569 64641 L19201 11794 L19599 12751 L71091 33962 L49880 85454 L-1612 64243 L19599 12751 L19201 11794z"/>
     <path fill="#BDBDBE" d="M19400 12273 L71569 33763 L50079 85932 L-2090 64442 L19400 12273 L19799 13229 L70613 34161 L49681 84975 L-1134 64043 L19799 13229 L19400 12273z"/>
     <path fill="#BDBDBE" d="M19599 12751 L71091 33962 L49880 85454 L-1612 64243 L19599 12751 L19998 13708 L70134 34361 L49481 84497 L-655 63844 L19998 13708 L19599 12751z"/>
     <path fill="#BEBEBE" d="M19799 13229 L70613 34161 L49681 84975 L-1134 64043 L19799 13229 L20197 14186 L69656 34560 L49282 84019 L-177 63645 L20197 14186 L19799 13229z"/>
     <path fill="#BEBEBE" d="M19998 13707 L70134 34360 L49481 84497 L-655 63844 L19998 13707 L20396 14664 L69178 34759 L49083 83541 L301 63446 L20396 14664 L19998 13707z"/>
     <path fill="#BEBEBE" d="M20197 14186 L69656 34560 L49282 84019 L-177 63645 L20197 14186 L20595 15142 L68699 34958 L48884 83062 L780 63247 L20595 15142 L20197 14186z"/>
     <path fill="#BFBFBF" d="M20396 14664 L69178 34759 L49083 83541 L301 63446 L20396 14664 L20795 15621 L68221 35157 L48685 82584 L1258 63047 L20795 15621 L20396 14664z"/>
     <path fill="#BFBFBF" d="M20595 15142 L68699 34958 L48884 83062 L780 63247 L20595 15142 L20994 16099 L67743 35357 L48485 82106 L1736 62848 L20994 16099 L20595 15142z"/>
     <path fill="silver" d="M20795 15621 L68221 35157 L48685 82584 L1258 63047 L20795 15621 L21193 16577 L67265 35556 L48286 81627 L2215 62649 L21193 16577 L20795 15621z"/>
     <path fill="silver" d="M20994 16099 L67743 35357 L48485 82106 L1736 62848 L20994 16099 L21392 17056 L66786 35755 L48087 81149 L2693 62450 L21392 17056 L20994 16099z"/>
     <path fill="silver" d="M21193 16577 L67265 35556 L48286 81627 L2215 62649 L21193 16577 L21591 17534 L66308 35954 L47888 80671 L3171 62250 L21591 17534 L21193 16577z"/>
     <path fill="#C1C1C1" d="M21392 17056 L66786 35755 L48087 81149 L2693 62450 L21392 17056 L21791 18012 L65830 36153 L47689 80192 L3650 62051 L21791 18012 L21392 17056z"/>
     <path fill="#C1C1C1" d="M21591 17534 L66308 35954 L47888 80671 L3171 62250 L21591 17534 L21990 18491 L65351 36353 L47489 79714 L4128 61852 L21990 18491 L21591 17534z"/>
     <path fill="#C1C1C1" d="M21791 18012 L65830 36153 L47688 80192 L3649 62051 L21791 18012 L22189 18969 L64873 36552 L47290 79236 L4606 61653 L22189 18969 L21791 18012z"/>
     <path fill="#C1C2C2" d="M21990 18491 L65351 36353 L47489 79714 L4128 61852 L21990 18491 L22388 19447 L64395 36751 L47091 78757 L5084 61454 L22388 19447 L21990 18491z"/>
     <path fill="#C1C2C2" d="M22189 18969 L64873 36552 L47290 79236 L4606 61653 L22189 18969 L22588 19926 L63916 36950 L46892 78279 L5563 61254 L22588 19926 L22189 18969z"/>
     <path fill="#C2C2C3" d="M22388 19447 L64395 36751 L47091 78757 L5084 61454 L22388 19447 L22787 20404 L63438 37150 L46692 77801 L6041 61055 L22787 20404 L22388 19447z"/>
     <path fill="#C2C2C3" d="M22588 19926 L63916 36950 L46892 78279 L5563 61254 L22588 19926 L22986 20882 L62960 37349 L46493 77323 L6519 60856 L22986 20882 L22588 19926z"/>
     <path fill="#C2C2C3" d="M22787 20404 L63438 37149 L46692 77801 L6041 61055 L22787 20404 L23185 21360 L62482 37548 L46294 76844 L6998 60657 L23185 21360 L22787 20404z"/>
     <path fill="#C3C3C4" d="M22986 20882 L62960 37349 L46493 77323 L6519 60856 L22986 20882 L23384 21839 L62003 37747 L46095 76366 L7476 60458 L23384 21839 L22986 20882z"/>
     <path fill="#C3C3C4" d="M23185 21360 L62481 37548 L46294 76844 L6998 60657 L23185 21360 L23584 22317 L61525 37946 L45896 75888 L7954 60258 L23584 22317 L23185 21360z"/>
     <path fill="#C3C3C4" d="M23384 21839 L62003 37747 L46095 76366 L7476 60458 L23384 21839 L23783 22795 L61047 38146 L45696 75409 L8433 60059 L23783 22795 L23384 21839z"/>
     <path fill="#C4C4C4" d="M23584 22317 L61525 37946 L45896 75888 L7954 60258 L23584 22317 L23982 23274 L60568 38345 L45497 74931 L8911 59860 L23982 23274 L23584 22317z"/>
     <path fill="#C4C4C4" d="M23783 22795 L61047 38146 L45696 75409 L8433 60059 L23783 22795 L24181 23752 L60090 38544 L45298 74453 L9389 59661 L24181 23752 L23783 22795z"/>
     <path fill="#C4C4C4" d="M23982 23274 L60568 38345 L45497 74931 L8911 59860 L23982 23274 L24380 24230 L59612 38743 L45099 73974 L9868 59461 L24380 24230 L23982 23274z"/>
     <path fill="#C5C5C5" d="M24181 23752 L60090 38544 L45298 74453 L9389 59661 L24181 23752 L24580 24709 L59133 38943 L44900 73496 L10346 59262 L24580 24709 L24181 23752z"/>
     <path fill="#C5C5C5" d="M24380 24230 L59612 38743 L45099 73974 L9868 59461 L24380 24230 L24779 25187 L58655 39142 L44700 73018 L10824 59063 L24779 25187 L24380 24230z"/>
     <path fill="#C6C6C6" d="M24580 24709 L59133 38942 L44899 73496 L10346 59262 L24580 24709 L24978 25665 L58177 39341 L44501 72539 L11302 58864 L24978 25665 L24580 24709z"/>
     <path fill="#C6C6C6" d="M24779 25187 L58655 39142 L44700 73018 L10824 59063 L24779 25187 L25177 26144 L57698 39540 L44302 72061 L11781 58665 L25177 26144 L24779 25187z"/>
     <path fill="#C6C6C6" d="M24978 25665 L58177 39341 L44501 72539 L11302 58864 L24978 25665 L25377 26622 L57220 39739 L44103 71583 L12259 58465 L25377 26622 L24978 25665z"/>
     <path fill="#C7C7C7" d="M25177 26144 L57698 39540 L44302 72061 L11781 58665 L25177 26144 L25576 27100 L56742 39939 L43903 71104 L12737 58266 L25576 27100 L25177 26144z"/>
     <path fill="#C7C7C7" d="M25377 26622 L57220 39739 L44103 71583 L12259 58465 L25377 26622 L25775 27578 L56264 40138 L43704 70626 L13216 58067 L25775 27578 L25377 26622z"/>
     <path fill="#C7C7C7" d="M25576 27100 L56742 39938 L43903 71105 L12737 58266 L25576 27100 L25974 28057 L55785 40337 L43505 70148 L13694 57868 L25974 28057 L25576 27100z"/>
     <path fill="#C7C8C8" d="M25775 27578 L56263 40138 L43704 70626 L13216 58067 L25775 27578 L26173 28535 L55307 40536 L43306 69670 L14172 57669 L26173 28535 L25775 27578z"/>
     <path fill="#C7C8C8" d="M25974 28057 L55785 40337 L43505 70148 L13694 57868 L25974 28057 L26373 29013 L54829 40735 L43107 69191 L14651 57469 L26373 29013 L25974 28057z"/>
     <path fill="#C8C8C9" d="M26173 28535 L55307 40536 L43306 69670 L14172 57669 L26173 28535 L26572 29492 L54350 40935 L42907 68713 L15129 57270 L26572 29492 L26173 28535z"/>
     <path fill="#C8C8C9" d="M26373 29013 L54828 40735 L43107 69191 L14651 57469 L26373 29013 L26771 29970 L53872 41134 L42708 68235 L15607 57071 L26771 29970 L26373 29013z"/>
     <path fill="#C8C8C9" d="M26572 29492 L54350 40935 L42907 68713 L15129 57270 L26572 29492 L26970 30448 L53394 41333 L42509 67756 L16086 56872 L26970 30448 L26572 29492z"/>
     <path fill="#C9C9CA" d="M26771 29970 L53872 41134 L42708 68235 L15607 57071 L26771 29970 L27169 30927 L52915 41532 L42310 67278 L16564 56672 L27169 30927 L26771 29970z"/>
     <path fill="#C9C9CA" d="M26970 30448 L53394 41333 L42509 67756 L16086 56872 L26970 30448 L27369 31405 L52437 41732 L42111 66800 L17042 56473 L27369 31405 L26970 30448z"/>
     <path fill="#C9C9CA" d="M27169 30927 L52915 41532 L42310 67278 L16564 56672 L27169 30927 L27568 31883 L51959 41931 L41911 66321 L17520 56274 L27568 31883 L27169 30927z"/>
     <path fill="#CACACA" d="M27369 31405 L52437 41731 L42110 66800 L17042 56473 L27369 31405 L27767 32362 L51480 42130 L41712 65843 L17999 56075 L27767 32362 L27369 31405z"/>
     <path fill="#CACACA" d="M27568 31883 L51959 41931 L41911 66321 L17520 56274 L27568 31883 L27966 32840 L51002 42329 L41513 65365 L18477 55876 L27966 32840 L27568 31883z"/>
     <path fill="#CACACA" d="M27767 32362 L51480 42130 L41712 65843 L17999 56075 L27767 32362 L28166 33318 L50524 42528 L41314 64886 L18955 55676 L28166 33318 L27767 32362z"/>
     <path fill="#CBCBCB" d="M27966 32840 L51002 42329 L41513 65365 L18477 55876 L27966 32840 L28365 33797 L50045 42728 L41114 64408 L19434 55477 L28365 33797 L27966 32840z"/>
     <path fill="#CBCBCB" d="M28166 33318 L50524 42528 L41314 64886 L18955 55676 L28166 33318 L28564 34275 L49567 42927 L40915 63930 L19912 55278 L28564 34275 L28166 33318z"/>
     <path fill="#CCCCCC" d="M28365 33796 L50045 42727 L41114 64408 L19434 55477 L28365 33796 L28763 34753 L49089 43126 L40716 63452 L20390 55079 L28763 34753 L28365 33796z"/>
     <path fill="#CCCCCC" d="M28564 34275 L49567 42927 L40915 63930 L19912 55278 L28564 34275 L28962 35231 L48611 43325 L40517 62973 L20869 54880 L28962 35231 L28564 34275z"/>
     <path fill="#CCCCCC" d="M28763 34753 L49089 43126 L40716 63452 L20390 55079 L28763 34753 L29162 35710 L48132 43524 L40318 62495 L21347 54680 L29162 35710 L28763 34753z"/>
     <path fill="#CCCCCD" d="M28962 35231 L48610 43325 L40517 62973 L20869 54880 L28962 35231 L29361 36188 L47654 43724 L40118 62017 L21825 54481 L29361 36188 L28962 35231z"/>
     <path fill="#CCCCCD" d="M29162 35710 L48132 43524 L40318 62495 L21347 54680 L29162 35710 L29560 36666 L47176 43923 L39919 61538 L22304 54282 L29560 36666 L29162 35710z"/>
     <path fill="#CCCCCD" d="M29361 36188 L47654 43724 L40118 62017 L21825 54481 L29361 36188 L29759 37145 L46697 44122 L39720 61060 L22782 54083 L29759 37145 L29361 36188z"/>
     <path fill="#CDCDCE" d="M29560 36666 L47176 43923 L39919 61538 L22304 54282 L29560 36666 L29958 37623 L46219 44321 L39521 60582 L23260 53883 L29958 37623 L29560 36666z"/>
     <path fill="#CDCDCE" d="M29759 37145 L46697 44122 L39720 61060 L22782 54083 L29759 37145 L30158 38101 L45741 44521 L39322 60103 L23739 53684 L30158 38101 L29759 37145z"/>
     <path fill="#CECECE" d="M29958 37623 L46219 44321 L39521 60582 L23260 53883 L29958 37623 L30357 38580 L45262 44720 L39122 59625 L24217 53485 L30357 38580 L29958 37623z"/>
     <path fill="#CECECE" d="M30158 38101 L45741 44520 L39321 60103 L23738 53684 L30158 38101 L30556 39058 L44784 44919 L38923 59147 L24695 53286 L30556 39058 L30158 38101z"/>
     <path fill="#CECECE" d="M30357 38580 L45262 44720 L39122 59625 L24217 53485 L30357 38580 L30755 39536 L44306 45118 L38724 58668 L25173 53087 L30755 39536 L30357 38580z"/>
     <path fill="#CFCFCF" d="M30556 39058 L44784 44919 L38923 59147 L24695 53286 L30556 39058 L30955 40015 L43827 45317 L38525 58190 L25652 52887 L30955 40015 L30556 39058z"/>
     <path fill="#CFCFCF" d="M30755 39536 L44306 45118 L38724 58668 L25173 53087 L30755 39536 L31154 40493 L43349 45517 L38325 57712 L26130 52688 L31154 40493 L30755 39536z"/>
     <path fill="#CFCFCF" d="M30955 40015 L43827 45317 L38525 58190 L25652 52887 L30955 40015 L31353 40971 L42871 45716 L38126 57234 L26608 52489 L31353 40971 L30955 40015z"/>
     <path fill="#D0D0D0" d="M31154 40493 L43349 45516 L38325 57712 L26130 52688 L31154 40493 L31552 41449 L42393 45915 L37927 56755 L27087 52290 L31552 41449 L31154 40493z"/>
     <path fill="#D0D0D0" d="M31353 40971 L42871 45716 L38126 57234 L26608 52489 L31353 40971 L31751 41928 L41914 46114 L37728 56277 L27565 52091 L31751 41928 L31353 40971z"/>
     <path fill="#D0D0D0" d="M31552 41449 L42392 45915 L37927 56755 L27087 52290 L31552 41449 L31951 42406 L41436 46313 L37529 55799 L28043 51891 L31951 42406 L31552 41449z"/>
     <path fill="#D1D1D1" d="M31751 41928 L41914 46114 L37728 56277 L27565 52091 L31751 41928 L32150 42884 L40958 46513 L37329 55320 L28522 51692 L32150 42884 L31751 41928z"/>
     <path fill="#D1D1D1" d="M31951 42406 L41436 46313 L37528 55799 L28043 51891 L31951 42406 L32349 43363 L40479 46712 L37130 54842 L29000 51493 L32349 43363 L31951 42406z"/>
     <path fill="#D1D2D2" d="M32150 42884 L40958 46513 L37329 55320 L28522 51692 L32150 42884 L32548 43841 L40001 46911 L36931 54364 L29478 51294 L32548 43841 L32150 42884z"/>
     <path fill="#D1D2D2" d="M32349 43363 L40479 46712 L37130 54842 L29000 51493 L32349 43363 L32747 44319 L39523 47110 L36732 53885 L29957 51095 L32747 44319 L32349 43363z"/>
     <path fill="#D1D2D2" d="M32548 43841 L40001 46911 L36931 54364 L29478 51294 L32548 43841 L32947 44798 L39044 47310 L36532 53407 L30435 50895 L32947 44798 L32548 43841z"/>
     <path fill="#D2D2D3" d="M32747 44319 L39523 47110 L36732 53885 L29957 51094 L32747 44319 L33146 45276 L38566 47509 L36333 52929 L30913 50696 L33146 45276 L32747 44319z"/>
     <path fill="#D2D2D3" d="M32947 44798 L39044 47309 L36532 53407 L30435 50895 L32947 44798 L33345 45754 L38088 47708 L36134 52451 L31391 50497 L33345 45754 L32947 44798z"/>
     <path fill="#D2D2D3" d="M33146 45276 L38566 47509 L36333 52929 L30913 50696 L33146 45276 L33544 46233 L37609 47907 L35935 51972 L31870 50298 L33544 46233 L33146 45276z"/>
     <path fill="lightgrey" d="M33345 45754 L38088 47708 L36134 52450 L31391 50497 L33345 45754 L33744 46711 L37131 48106 L35736 51494 L32348 50098 L33744 46711 L33345 45754z"/>
     <path fill="lightgrey" d="M33544 46233 L37609 47907 L35935 51972 L31870 50298 L33544 46233 L33943 47189 L36653 48306 L35536 51016 L32826 49899 L33943 47189 L33544 46233z"/>
     <path fill="#D4D4D4" d="M33744 46711 L37131 48106 L35736 51494 L32348 50098 L33744 46711 L34142 47667 L36175 48505 L35337 50537 L33305 49700 L34142 47667 L33744 46711z"/>
     <path fill="#D4D4D4" d="M33943 47189 L36653 48305 L35536 51016 L32826 49899 L33943 47189 L34341 48146 L35696 48704 L35138 50059 L33783 49501 L34341 48146 L33943 47189z"/>
     <path fill="#D4D4D4" d="M34142 47667 L36174 48505 L35337 50537 L33305 49700 L34142 47667 L34540 48624 L35218 48903 L34939 49581 L34261 49302 L34540 48624 L34142 47667z"/>
     <path fill="#D5D5D5" d="M34341 48146 L35696 48704 L35138 50059 L33783 49501 L34341 48146 L34740 49102 L34740 49102 L34740 49102 L34740 49102 L34740 49102 L34341 48146z"/>
     <path fill="#D5D5D5" d="M34540 48624 L35218 48903 L34939 49581 L34261 49302 L34540 48624 L34540 48624z"/>
    </mask>
 </defs>
 <g id="Capa_x0020_1">
  <metadata id="CorelCorpID_0Corel-Layer"/>
  <g id="_977666124752">
   <rect class="fil0" x="34603" y="66524" width="51956" height="33984"/>
   <path class="fil1 str0" d="M11761 15360l96413 0 0 51221 -45737 -57c-106,3630 -1399,35254 -3598,13127 -297,-2992 -1019,-7312 -1394,-13070l-45684 0 0 -51221z"/>
   <path class="fil2 str1" d="M77666 102150l-108 6787 18783 0 0 -6673c0,-4034 -294,-4928 1115,-8720 2040,-5492 1826,-5960 1826,-11817l0 -6593c29,-4303 -5281,-4229 -5091,-170l0 653c0,535 100,902 -294,902 -461,0 -385,-222 -385,-888l0 -3468c87,-3130 -4661,-3970 -4894,0l0 3185c-17,613 117,1154 -364,1126 -459,0 -422,-311 -400,-1069l0 -3440c-39,-3317 -4675,-3284 -4582,0l0 3638c0,800 148,1228 -450,1199 -588,0 -484,-301 -484,-1143l0 -15179c217,-3687 -4517,-3978 -4611,0l0 20413c0,634 99,1383 -336,1369 -423,-29 -314,-865 -314,-1468l0 -5969c-41,-1741 128,-2538 -1485,-2518 -825,10 -1024,217 -1463,663l-1042 1062c-1129,1174 -932,1256 -932,3141l0 4158c0,7217 -553,5952 3424,11958 2815,4251 2170,3725 2087,8861z"/>
   <path class="fil3 str2" d="M32099 40918c5789,-12662 17670,-18477 29366,-17811 10665,608 21532,5420 26770,17722 -6247,12656 -17425,18373 -28679,17703 -10347,-615 -21232,-5917 -27457,-17614z"/>
   <path class="fil4 str1" d="M7524 25857c-1981,-2282 -5618,-1507 -5771,1924l21075 0c107,-2039 -1371,-2713 -2942,-1697 -2463,-6672 -10979,-6171 -12362,-227z"/>
   <path class="fil4 str1" d="M103576 53428c-1981,-2283 -5618,-1508 -5771,1923l21075 0c107,-2039 -1371,-2713 -2942,-1697 -2463,-6671 -10979,-6171 -12362,-226z"/>
   <path class="fil4 str3" d="M33345 40820c5516,-12065 16838,-17606 27982,-16971 10163,579 20518,5164 25509,16886 -5952,12060 -16604,17508 -27328,16870 -9859,-587 -20232,-5639 -26163,-16785z"/>
   <circle class="fil5" cx="60110" cy="40734" r="11854"/>
   <circle class="fil4" cx="55366" cy="34680" r="2293"/>
   <circle class="fil3" cx="60110" cy="40734" r="3474"/>
   <rect class="fil0" x="35056" y="9254" width="51956" height="6166"/>
   <polygon class="fil6 str4" points="17664,80376 19057,82365 21379,83076 19918,85015 19960,87444 17664,86653 15367,87444 15409,85015 13948,83076 16270,82365 "/>
   <polygon class="fil6 str4" points="102351,93210 103744,95200 106067,95910 104606,97850 104647,100278 102351,99488 100054,100278 100096,97850 98635,95910 100958,95200 "/>
   <g>
    <rect class="fil4 str5" transform="matrix(0.464006 0.392604 -0.330577 0.390699 112095 82690.8)" width="661" height="6119" rx="331" ry="331"/>
    <rect class="fil4 str5" transform="matrix(0.440783 -0.443706 -0.373605 -0.371144 112309 85226.5)" width="661" height="6119" rx="293" ry="293"/>
   </g>
   <g>
    <rect class="fil4 str6" transform="matrix(0.464006 0.392604 -0.330577 0.390699 7854.5 71695.8)" width="661" height="6119" rx="331" ry="331"/>
    <rect class="fil4 str6" transform="matrix(0.440783 -0.443706 -0.373605 -0.371144 8068.45 74231.4)" width="661" height="6119" rx="293" ry="293"/>
   </g>
   <g>
    <rect class="fil6 str6" transform="matrix(0.464006 0.392604 -0.330577 0.390699 112095 82690.8)" width="661" height="6119" rx="331" ry="331"/>
    <rect class="fil6 str6" transform="matrix(0.440783 -0.443706 -0.373605 -0.371144 112309 85226.5)" width="661" height="6119" rx="293" ry="293"/>
   </g>
   <g>
    <rect class="fil4 str6" transform="matrix(0.464006 0.392604 -0.330577 0.390699 96025.9 8555.78)" width="661" height="6119" rx="331" ry="331"/>
    <rect class="fil4 str6" transform="matrix(0.440783 -0.443706 -0.373605 -0.371144 96239.9 11091.4)" width="661" height="6119" rx="293" ry="293"/>
   </g>
   <polygon class="fil7" style="mask:url(#id0)" points="50849,52010 9244,10185 18465,964 59961,42020 101896,1183 110898,10185 69073,52010 111227,94165 102006,103386 59742,61122 18575,102288 9573,93287 "/>
  </g>
 </g>
</svg>
