<?xml version="1.0" encoding="UTF-8"?>
<!DOCTYPE svg PUBLIC "-//W3C//DTD SVG 1.1//EN" "http://www.w3.org/Graphics/SVG/1.1/DTD/svg11.dtd">
<!-- Creator: CorelDRAW X8 -->
<svg xmlns="http://www.w3.org/2000/svg" xml:space="preserve" width="107mm" height="100mm" version="1.1" style="shape-rendering:geometricPrecision; text-rendering:geometricPrecision; image-rendering:optimizeQuality; fill-rule:evenodd; clip-rule:evenodd"
viewBox="0 0 107000 100000"
 xmlns:xlink="http://www.w3.org/1999/xlink">
 <defs>
  <style type="text/css">
   <![CDATA[
    .str1 {stroke:black;stroke-width:200}
    .str3 {stroke:#003399;stroke-width:200}
    .str2 {stroke:yellow;stroke-width:200}
    .str0 {stroke:#FFB76E;stroke-width:76.2}
    .fil4 {fill:none}
    .fil1 {fill:black}
    .fil6 {fill:#003399}
    .fil7 {fill:#FF0066}
    .fil2 {fill:#FF9933}
    .fil3 {fill:#FFB76E}
    .fil5 {fill:#FFCC00}
    .fil9 {fill:#FFCC99}
    .fil10 {fill:#FFE6CC}
    .fil8 {fill:yellow}
    .fil0 {fill:white}
   ]]>
  </style>
    <clipPath id="id0">
     <path d="M20309 44803l67318 0 0 36826 -67318 0 0 -36826z"/>
    </clipPath>
 </defs>
 <g id="Capa_x0020_1">
  <metadata id="CorelCorpID_0Corel-Layer"/>
  <g id="_1012874801968">
   <rect class="fil0" x="10089" y="41949" width="87618" height="42255" rx="5417" ry="5373"/>
   <rect class="fil1" x="18913" y="43192" width="70110" height="39618"/>
   <polygon class="fil2" points="20309,44803 87627,44803 87627,81629 20309,81629 "/>
   <g style="clip-path:url(#id0)">
    <g>
     <polygon id="1" class="fil3 str0" points="26842,81629 25410,81629 36642,44803 37854,44803 "/>
     <polygon class="fil3" points="28934,81629 39395,44803 43029,44803 32017,81629 "/>
     <polygon class="fil3" points="63841,81629 74743,44803 76945,44803 66154,81629 "/>
     <polygon class="fil3" points="68026,81629 78156,44803 83662,44803 73091,81629 "/>
    </g>
   </g>
   <polygon class="fil4 str1" points="20309,44803 87627,44803 87627,81629 20309,81629 "/>
   <circle class="fil1" cx="14370" cy="63102" r="3749"/>
   <g>
    <rect class="fil0" x="14282" y="2606" width="1308" height="10186" rx="654" ry="551"/>
    <rect class="fil0" transform="matrix(1.39341 1.40265 -1.18105 1.17327 24475.8 5728.89)" width="661" height="6119" rx="331" ry="331"/>
    <rect class="fil0" transform="matrix(1.39341 -1.40265 -1.18105 -1.17327 11404.3 13837.1)" width="661" height="6119" rx="331" ry="331"/>
    <rect class="fil0" transform="matrix(-0.0117643 1.97709 1.66473 0.00990571 483.494 16159.4)" width="661" height="6119" rx="331" ry="331"/>
    <rect class="fil0" transform="matrix(-0.0117643 1.97709 1.66473 0.00990571 19065.6 16212.8)" width="661" height="6119" rx="331" ry="331"/>
    <rect class="fil0" transform="matrix(1.39341 -1.40265 -1.18105 -1.17327 24653.4 26895.4)" width="661" height="6119" rx="293" ry="293"/>
    <rect class="fil0" x="14255" y="21037" width="1308" height="10186" rx="600" ry="505"/>
    <rect class="fil0" transform="matrix(1.39341 1.40265 -1.18105 1.17327 11434.7 18771.5)" width="661" height="6119" rx="331" ry="331"/>
   </g>
   <polygon class="fil5" points="89630,40127 40004,40274 85519,26472 "/>
   <polygon class="fil6" points="55310,15497 26900,39943 31745,39943 61404,22325 "/>
   <polygon class="fil7" points="71828,17846 34388,39943 35930,39943 77260,27390 "/>
   <path class="fil0" d="M26900 39943l1076 0 20482 -17550c3629,2865 7461,3912 11972,-1160l-5120 -5736 -28410 24446z"/>
   <path class="fil0" d="M34388 39943l771 0 28716 -16724c3417,4313 7270,5145 11714,1235l-3761 -6608 -37440 22097z"/>
   <path class="fil0" d="M40004 40274l1627 -5 34963 -10498c1880,5216 5577,6583 11128,4018l-2203 -7317 -45515 13802z"/>
   <polygon class="fil0" points="87710,33748 87371,33901 89199,40128 89630,40127 "/>
   <polygon class="fil0" points="75568,24415 75279,24664 76899,27498 77260,27389 "/>
   <polygon class="fil0" points="60394,21185 60093,21517 61032,22544 61408,22320 "/>
   <g>
    <rect class="fil0" x="98173" y="82810" width="742" height="5783" rx="371" ry="313"/>
    <rect class="fil0" transform="matrix(0.791036 0.796282 -0.670479 0.666061 103960 84582.9)" width="661" height="6119" rx="331" ry="331"/>
    <rect class="fil0" transform="matrix(0.791036 -0.796282 -0.670479 -0.666061 96538.8 89185.9)" width="661" height="6119" rx="331" ry="331"/>
    <rect class="fil0" transform="matrix(-0.00667859 1.12239 0.945065 0.00562345 90339.1 90504.3)" width="661" height="6119" rx="331" ry="331"/>
    <rect class="fil0" transform="matrix(-0.00667859 1.12239 0.945065 0.00562345 100888 90534.6)" width="661" height="6119" rx="331" ry="331"/>
    <rect class="fil0" transform="matrix(0.791036 -0.796282 -0.670479 -0.666061 104060 96599.1)" width="661" height="6119" rx="293" ry="293"/>
    <rect class="fil0" x="98157" y="93274" width="742" height="5783" rx="341" ry="287"/>
    <rect class="fil0" transform="matrix(0.791036 0.796282 -0.670479 0.666061 96556.1 91987.1)" width="661" height="6119" rx="331" ry="331"/>
   </g>
   <g>
    <polygon class="fil8 str2" points="81164,30122 81540,30342 81950,30176 81848,30601 82126,30933 81688,30976 81450,31348 81281,30949 80856,30847 81190,30557 "/>
    <polygon class="fil8 str2" points="83020,28768 83396,28988 83806,28822 83704,29247 83982,29579 83544,29622 83306,29993 83137,29595 82711,29492 83046,29202 "/>
    <polygon class="fil8 str2" points="83122,30614 83498,30833 83908,30667 83806,31093 84084,31424 83646,31468 83408,31839 83239,31440 82813,31338 83148,31048 "/>
   </g>
   <ellipse class="fil7" cx="68995" cy="21292" rx="385" ry="881"/>
   <ellipse class="fil7" cx="71032" cy="24816" rx="385" ry="881"/>
   <polygon class="fil6 str3" points="53219,18819 54380,19498 55648,18984 55333,20301 56195,21326 54838,21460 54103,22609 53580,21375 52264,21059 53297,20162 "/>
   <circle class="fil0 str1" cx="14370" cy="63102" r="2643"/>
   <g>
    <path class="fil1" d="M39289 64045l-4817 -4515 12250 -12388 4570 4460 -1101 1376 7818 0 -1046 -1046 4680 -4680 12113 12278 -4625 4295 -991 -991 -1211 991 -55 1376 -2478 2092c1770,1862 627,3673 -936,3689 1552,2562 -396,4055 -2368,3359 -167,2178 -2116,2659 -3799,1597 -458,1825 -2065,2222 -3634,1156 -1338,1048 -3819,410 -3578,-1652 -1207,-98 -2955,-450 -2368,-2533 -1355,396 -2940,-816 -2477,-2477 -2123,545 -3356,-1811 -1707,-3524l-771 -606 110 -1872 -1982 -2037 -1597 1652z"/>
    <path class="fil9 str1" d="M44297 63742l-2478 -2148 7268 -7543 1143 17c1373,19 1527,-211 525,741l-1779 1692c-2802,2664 705,5690 3084,3744l2229 -1983c1201,-1069 1014,-1188 1044,414l30 1597 7929 7653c1367,996 339,3395 -1597,1377l-4624 -4625c-1230,-1230 -2038,-107 -932,877l6244 5978c1065,954 -128,2899 -1789,1459l-5837 -5975c-1202,-1220 -1964,9 -908,661l5726 5699c817,835 -156,2468 -1569,1487l-5616 -5671c-1010,-991 -1908,-134 -853,839l4294 4405c1294,1037 -27,3051 -1679,1363l-9800 -9856 -55 -2202z"/>
    <path class="fil10 str1" d="M50946 59268c-1275,955 -2303,-459 -1679,-1514l3117 -2966c976,-780 806,-806 2306,-806l3180 0c1680,0 1423,-145 2539,930l6835 6834 -1707 1431 0 1707 -1872 1707 -6731 -6731 43 -2437c27,-1465 372,-1483 -1048,-1496l-440 -5c-1378,-13 -1203,-97 -2052,771l-2491 2575z"/>
    <path class="fil10" d="M44440 67652l1263 1110c-563,1685 -2842,-205 -1263,-1110z"/>
    <path class="fil10" d="M46841 70061l1264 1110c-564,1685 -2842,-205 -1264,-1110z"/>
    <path class="fil10" d="M49209 72484l1263 1109c-563,1686 -2842,-204 -1263,-1109z"/>
    <path class="fil10" d="M51541 74891l1264 1109c-564,1686 -2842,-204 -1264,-1109z"/>
    <polygon class="fil7" points="39041,62338 36206,59530 46584,49068 49448,51876 "/>
    <polygon class="fil5" points="69047,62225 71883,59417 61504,48956 58641,51764 "/>
    <circle class="fil1 str1" cx="38957" cy="59463" r="926"/>
    <circle class="fil1" cx="69361" cy="59640" r="926"/>
   </g>
   <circle class="fil1" cx="95706" cy="62947" r="817"/>
   <rect class="fil1" x="92276" y="59199" width="1062" height="7922" rx="531" ry="531"/>
  </g>
 </g>
</svg>
