<?xml version="1.0" encoding="UTF-8"?>
<!DOCTYPE svg PUBLIC "-//W3C//DTD SVG 1.1//EN" "http://www.w3.org/Graphics/SVG/1.1/DTD/svg11.dtd">
<!-- Creator: CorelDRAW X8 -->
<svg xmlns="http://www.w3.org/2000/svg" xml:space="preserve" width="94mm" height="93mm" version="1.1" style="shape-rendering:geometricPrecision; text-rendering:geometricPrecision; image-rendering:optimizeQuality; fill-rule:evenodd; clip-rule:evenodd"
viewBox="0 0 94000 93000"
 xmlns:xlink="http://www.w3.org/1999/xlink">
 <defs>
  <style type="text/css">
   <![CDATA[
    .str3 {stroke:#1A1A1A;stroke-width:76.2}
    .str0 {stroke:#333333;stroke-width:76.2}
    .str1 {stroke:#4D4D4D;stroke-width:76.2}
    .str2 {stroke:gray;stroke-width:76.2}
    .fil4 {fill:#1A1A1A}
    .fil1 {fill:#333333}
    .fil2 {fill:#4D4D4D}
    .fil3 {fill:gray}
    .fil0 {fill:white}
   ]]>
  </style>
 </defs>
 <g id="Capa_x0020_1">
  <metadata id="CorelCorpID_0Corel-Layer"/>
  <g id="_977666124336">
   <ellipse class="fil0" cx="17121" cy="33003" rx="16577" ry="16453"/>
   <ellipse class="fil0" cx="55040" cy="12430" rx="11303" ry="11218"/>
   <ellipse class="fil0" cx="80651" cy="42842" rx="11303" ry="11218"/>
   <ellipse class="fil0" cx="14053" cy="72370" rx="11303" ry="11218"/>
   <ellipse class="fil0" cx="60585" cy="75909" rx="16577" ry="16453"/>
   <polygon class="fil0" points="30295,26547 31957,28370 47689,16711 45572,15586 "/>
   <polygon class="fil0" points="74780,33956 72759,35547 60572,21332 62563,19972 "/>
   <polygon class="fil0" points="31787,37224 32413,32605 70900,39386 70136,43902 "/>
   <polygon class="fil0" points="19137,47251 14310,47655 12461,62557 16799,62970 "/>
   <polygon class="fil0" points="23397,68025 22324,66095 71428,45965 72497,48191 "/>
   <polygon class="fil0" points="69631,63858 66240,61392 74506,50614 78180,52849 "/>
   <polygon class="fil0" points="23843,75115 24540,70826 45475,73591 45285,77902 "/>
   <g>
    <path class="fil1 str0" d="M53088 73672c2,-1249 797,-1390 1858,-1392l950 -1 0 0 17 -3408c73,-2326 2325,-3651 4680,-3745 1801,-71 3662,577 4658,2046 689,1018 671,1725 686,2870l28 2222 924 -1c1863,-3 1868,568 1876,1409l-1 8760c0,884 -52,1576 -1347,1644l-12860 4c-890,-18 -1454,-511 -1505,-1419l36 -8989zm4203 -1395l7312 -11 -36 -2139c-18,-1120 -26,-1770 -589,-2349 -739,-760 -2032,-1200 -3092,-1216 -1244,-18 -2478,446 -3169,1459 -526,770 -421,1193 -422,2072l-4 2184zm-2680 2266c-16,-929 698,-890 1530,-891l8854 -14c2121,3 2252,-78 2241,905l-2 6942c-25,783 154,1214 -1119,1175l-9951 3c-869,9 -1538,-86 -1582,-881l29 -7239z"/>
    <path class="fil1 str0" d="M60922 75387c1060,0 1919,856 1919,1913 0,863 -574,1593 -1362,1831l0 2183 -1042 -23 -1 -2163c-825,-215 -1434,-855 -1434,-1828 0,-973 860,-1913 1920,-1913z"/>
   </g>
   <g>
    <path class="fil1 str0" d="M8642 31181c2,-1248 797,-1389 1858,-1391l950 -1 0 0 16 -3408c73,-2327 2326,-3652 4681,-3745 1801,-71 3662,577 4658,2046 689,1018 671,1725 686,2869l28 2223 924 -1c1863,-3 1868,568 1876,1408l-1 8760c0,885 -52,1576 -1347,1645l-12861 4c-889,-18 -1453,-511 -1504,-1420l36 -8989zm4203 -1394l7312 -11 -36 -2139c-18,-1120 -26,-1771 -589,-2350 -739,-759 -2032,-1199 -3092,-1215 -1244,-19 -2478,446 -3169,1458 -526,771 -421,1194 -422,2073l-4 2184zm-2680 2266c-16,-929 698,-890 1530,-891l8854 -14c2121,3 2252,-78 2240,905l-1 6941c-25,783 154,1215 -1119,1176l-9951 3c-869,9 -1538,-86 -1582,-881l29 -7239z"/>
    <path class="fil1 str0" d="M16476 32896c1060,0 1919,857 1919,1914 0,863 -574,1593 -1362,1831l0 2183 -1042 -23 -1 -2163c-825,-215 -1434,-856 -1434,-1828 0,-974 860,-1914 1920,-1914z"/>
   </g>
   <g>
    <path class="fil2 str1" d="M49955 11081c1,-827 528,-921 1231,-922l630 0 0 -1 11 -2258c48,-1542 1541,-2420 3102,-2482 1193,-47 2427,382 3086,1356 457,675 446,1143 455,1902l19 1473 612 -1c1235,-2 1238,376 1244,933l-1 5806c0,586 -35,1045 -893,1090l-8523 3c-590,-12 -963,-339 -997,-941l24 -5958zm2785 -924l4847 -7 -24 -1417c-13,-743 -18,-1174 -391,-1558 -490,-503 -1347,-795 -2049,-805 -825,-13 -1642,295 -2100,966 -349,511 -279,791 -280,1374l-3 1447zm-1776 1502c-11,-616 463,-590 1014,-590l5868 -10c1406,2 1493,-51 1485,600l-1 4600c-16,519 102,806 -741,779l-6596 2c-576,6 -1019,-56 -1048,-583l19 -4798z"/>
    <path class="fil2 str1" d="M55147 12218c702,0 1272,568 1272,1268 0,572 -381,1056 -903,1214l0 1446 -691 -15 0 -1433c-547,-143 -950,-567 -950,-1212 0,-645 569,-1268 1272,-1268z"/>
   </g>
   <g>
    <path class="fil3 str2" d="M75743 41543c1,-827 528,-921 1231,-922l630 -1 0 0 11 -2258c48,-1542 1541,-2420 3102,-2482 1193,-47 2427,382 3087,1356 456,675 445,1143 454,1902l19 1473 612 -1c1235,-2 1238,376 1244,933l-1 5806c0,586 -34,1045 -892,1090l-8524 3c-589,-12 -963,-339 -997,-941l24 -5958zm2785 -924l4847 -7 -24 -1418c-13,-742 -18,-1173 -391,-1557 -489,-503 -1347,-795 -2049,-805 -825,-13 -1642,295 -2100,966 -349,511 -279,791 -280,1374l-3 1447zm-1776 1502c-11,-616 463,-590 1014,-591l5868 -9c1406,2 1493,-51 1485,600l-1 4600c-16,519 102,805 -741,779l-6596 2c-576,6 -1019,-56 -1048,-583l19 -4798z"/>
    <path class="fil3 str2" d="M80935 42680c702,0 1272,568 1272,1268 0,572 -381,1056 -903,1214l0 1446 -691 -15 0 -1434c-547,-142 -950,-566 -950,-1211 0,-645 569,-1268 1272,-1268z"/>
   </g>
   <g>
    <path class="fil4 str3" d="M8788 70902c1,-827 528,-921 1231,-922l630 -1 0 0 11 -2258c48,-1542 1541,-2420 3102,-2482 1193,-47 2427,382 3086,1356 457,674 446,1143 455,1901l19 1474 612 -1c1235,-2 1238,376 1244,933l-1 5806c0,586 -35,1044 -893,1090l-8523 2c-590,-12 -963,-338 -997,-940l24 -5958zm2785 -924l4847 -7 -24 -1418c-13,-742 -18,-1173 -391,-1557 -490,-503 -1347,-795 -2049,-806 -825,-12 -1642,296 -2100,967 -349,511 -279,791 -280,1374l-3 1447zm-1776 1502c-11,-616 463,-590 1014,-591l5868 -9c1406,2 1493,-52 1485,600l-1 4600c-16,519 102,805 -741,779l-6596 2c-576,6 -1019,-57 -1048,-584l19 -4797z"/>
    <path class="fil4 str3" d="M13980 72039c702,0 1272,567 1272,1268 0,572 -381,1056 -903,1213l0 1447 -691 -15 0 -1434c-547,-142 -950,-566 -950,-1211 0,-645 569,-1268 1272,-1268z"/>
   </g>
  </g>
 </g>
</svg>
