<?xml version="1.0" encoding="UTF-8"?>
<!DOCTYPE svg PUBLIC "-//W3C//DTD SVG 1.1//EN" "http://www.w3.org/Graphics/SVG/1.1/DTD/svg11.dtd">
<!-- Creator: CorelDRAW X8 -->
<svg xmlns="http://www.w3.org/2000/svg" xml:space="preserve" width="69mm" height="104mm" version="1.1" style="shape-rendering:geometricPrecision; text-rendering:geometricPrecision; image-rendering:optimizeQuality; fill-rule:evenodd; clip-rule:evenodd"
viewBox="0 0 69000 104000"
 xmlns:xlink="http://www.w3.org/1999/xlink">
 <defs>
  <style type="text/css">
   <![CDATA[
    .fil0 {fill:white}
   ]]>
  </style>
 </defs>
 <g id="Capa_x0020_1">
  <metadata id="CorelCorpID_0Corel-Layer"/>
  <g id="_1012869239808">
   <rect class="fil0" x="26959" y="42870" width="15771" height="17845" rx="2429" ry="2486"/>
   <path class="fil0" d="M2281 38380c1969,-24560 12860,-37165 32672,-37815 18819,10 29644,12048 32476,36115 2688,28140 -834,47118 -10564,56936 -10105,10921 -22561,12904 -37368,5948 -18660,-10605 -19958,-42103 -17216,-61184zm15260 41320c-3048,-7752 -4157,-20711 -3326,-38877 1507,-17572 6985,-27132 16434,-28680 13962,-3168 22113,5684 24455,26555 1290,16494 363,29695 -2782,39605 -5547,17486 -26280,19919 -34781,1397z"/>
  </g>
 </g>
</svg>
